<?xml version="1.0" encoding="UTF-8"?>
<!DOCTYPE svg PUBLIC "-//W3C//DTD SVG 1.1//EN" "http://www.w3.org/Graphics/SVG/1.1/DTD/svg11.dtd">
<!-- Creator: CorelDRAW X7 -->
<svg xmlns="http://www.w3.org/2000/svg" xml:space="preserve" width="3.382mm" height="3.382mm" version="1.1" shape-rendering="geometricPrecision" text-rendering="geometricPrecision" image-rendering="optimizeQuality" fill-rule="evenodd" clip-rule="evenodd"
viewBox="0 0 22 22"
 xmlns:xlink="http://www.w3.org/1999/xlink">
 <g id="Layer_x0020_1">
  <metadata id="CorelCorpID_0Corel-Layer"/>
  <g id="_910269568">
   <circle fill="#3ABEFE" cx="11" cy="11" r="11"/>
   <g>
    <path fill="#0E121C" d="M14 6c0,-2 0,-2 -2,-2 -1,0 -3,0 -3,1 0,0 0,6 0,7 0,1 0,2 1,2 2,0 3,1 3,-1 0,-2 0,-5 1,-7z"/>
    <path fill="#0E121C" d="M9 17c1,1 2,2 3,1 1,0 1,0 1,-1 0,-2 -1,-1 -2,-1 -1,0 -2,0 -2,1z"/>
   </g>
  </g>
 </g>
</svg>
