<?xml version="1.0" encoding="UTF-8"?>
<!DOCTYPE svg PUBLIC "-//W3C//DTD SVG 1.1//EN" "http://www.w3.org/Graphics/SVG/1.1/DTD/svg11.dtd">
<!-- Creator: CorelDRAW X7 -->
<svg xmlns="http://www.w3.org/2000/svg" xml:space="preserve" width="3.0466mm" height="3.2207mm" version="1.1" shape-rendering="geometricPrecision" text-rendering="geometricPrecision" image-rendering="optimizeQuality" fill-rule="evenodd" clip-rule="evenodd"
viewBox="0 0 18 19"
 xmlns:xlink="http://www.w3.org/1999/xlink">
 <g id="Layer_x0020_1">
  <metadata id="CorelCorpID_0Corel-Layer"/>
  <g id="_910245928">
   <path fill="#3ABEFE" d="M0 2l0 16c0,0 0,1 1,1 0,0 0,0 0,0l1 0c0,0 0,0 1,0 0,0 1,0 1,-1 0,0 1,0 1,0 1,-1 0,-2 -1,-2 0,0 -1,0 -1,0 0,0 -1,0 -1,-1 0,0 0,-1 0,-2l0 -8c0,0 0,-1 0,-1 1,-1 1,-1 2,-1 0,0 0,0 1,1l4 2c1,1 3,2 4,2 0,1 1,1 1,1 0,0 1,1 0,1 0,1 -1,1 -1,1l-5 2c0,1 0,1 0,1 0,-1 0,-2 0,-2 0,-1 0,-2 0,-2 -1,-1 -1,-1 -2,-1 0,1 0,1 0,2 0,1 0,3 0,4 0,1 0,1 0,1 1,1 1,1 2,0 1,0 2,-1 3,-1 0,-1 1,-1 1,-1l3 -1c0,-1 2,-2 3,-2 0,0 0,0 0,-1 0,0 0,0 0,0l0 0c0,-1 0,-1 0,-1 0,0 0,0 0,0 -1,-1 -3,-2 -3,-2 -2,-1 -3,-2 -4,-3 -2,0 -3,-1 -5,-2l-3 -2c-1,0 -1,0 -1,0l-1 0c0,0 0,0 0,0 -1,1 -1,1 -1,2z"/>
   <path fill="#3ABEFE" d="M7 6c-2,0 -2,3 0,2 0,0 1,0 1,-1 0,0 -1,-1 -1,-1z"/>
  </g>
 </g>
</svg>
