<?xml version="1.0" encoding="UTF-8"?>
<!DOCTYPE svg PUBLIC "-//W3C//DTD SVG 1.1//EN" "http://www.w3.org/Graphics/SVG/1.1/DTD/svg11.dtd">
<!-- Creator: CorelDRAW X7 -->
<svg xmlns="http://www.w3.org/2000/svg" xml:space="preserve" width="3.2588mm" height="3.8059mm" version="1.1" shape-rendering="geometricPrecision" text-rendering="geometricPrecision" image-rendering="optimizeQuality" fill-rule="evenodd" clip-rule="evenodd"
viewBox="0 0 21 25"
 xmlns:xlink="http://www.w3.org/1999/xlink">
 <g id="Layer_x0020_1">
  <metadata id="CorelCorpID_0Corel-Layer"/>
  <g id="_912934280">
   <path fill="#0E121C" d="M10 9c0,0 1,-1 2,-2 1,-1 2,-2 3,0 1,1 0,2 -1,3 -4,4 -4,5 -8,1 0,0 -1,-1 0,-2 0,-1 1,-2 2,-1 1,1 1,1 2,1zm-8 -1c0,1 0,1 0,2 0,1 0,1 0,2 -1,1 1,1 2,2 0,1 0,2 0,2 1,1 1,1 2,1 2,0 1,2 3,2 0,-1 1,-1 2,-1 1,0 2,2 3,0 1,-2 2,-1 3,-1 1,-1 0,-2 0,-2 1,-2 3,-2 2,-3 0,-1 0,-1 0,-2 0,-1 0,-1 0,-2 1,0 0,-1 0,-1 -3,-1 -1,-3 -2,-3 0,-1 -1,-1 -2,-1 -2,0 -1,-2 -3,-2 0,0 0,1 -1,1 -2,0 -3,-2 -4,0 -1,2 -2,1 -3,1 -1,1 0,2 0,2 -1,2 -3,2 -2,3z"/>
   <path fill="#3ABEFE" d="M13 20c1,0 2,-2 2,-2 0,-1 1,0 1,0 1,0 1,-1 2,-1 0,0 2,4 2,4 -4,0 -3,0 -4,1 0,1 -1,1 -1,2 0,-1 -1,-2 -1,-2 0,-1 -1,-2 -1,-2zm-7 3c-1,0 -1,-1 -2,-2 0,-1 -2,0 -3,0 1,-1 2,-3 2,-4 2,1 2,0 3,1 0,0 0,1 1,1 0,0 1,0 1,1l-1 2c-1,1 -1,1 -1,1l0 0c0,0 0,0 0,0 0,0 0,0 0,0zm-4 -15c-1,-1 1,-1 2,-3 0,0 -1,-1 0,-2 1,0 2,1 3,-1 1,-2 2,0 4,0 1,0 1,-1 1,-1 2,0 1,2 3,2 1,0 2,0 2,1 1,0 -1,2 2,3 0,0 1,1 0,1 0,1 0,1 0,2 0,1 0,1 0,2 1,1 -1,1 -2,3 0,0 1,1 0,2 -1,0 -2,-1 -3,1 -1,2 -2,0 -3,0 -1,0 -2,0 -2,1 -2,0 -1,-2 -3,-2 -1,0 -1,0 -2,-1 0,0 0,-1 0,-2 -1,-1 -3,-1 -2,-2 0,-1 0,-1 0,-2 0,-1 0,-1 0,-2zm13 17l0 0c1,-1 2,-3 2,-3 1,0 2,0 2,0 2,0 1,0 2,-1 0,-1 -1,-3 -2,-4 -1,-1 -1,-1 -1,-2 0,-1 2,-1 2,-2 1,-2 -1,-2 0,-3 0,-1 1,-2 0,-4 -1,0 -1,0 -2,0 0,-1 1,-3 -1,-4 0,0 -1,0 -2,0 0,0 0,-1 -1,-1 0,-1 0,-1 -1,-1l-1 0c0,0 0,0 -1,0 0,1 0,1 -1,1 0,0 -1,-1 -1,-1l-1 0c-1,0 -1,0 -1,1 -1,1 -1,1 -2,1 -1,0 -2,1 -2,2 0,2 -2,1 -2,3 -1,2 1,2 0,4 0,0 -1,1 0,2 1,1 2,0 2,3 0,1 -3,4 -3,4 0,2 2,2 4,2 0,0 0,1 1,2 1,2 2,-1 3,-2 1,-1 1,-2 2,-3 2,-1 3,4 5,6z"/>
   <path fill="#3ABEFE" d="M14 8l-3 4c-2,1 -2,0 -3,0 0,-1 -2,-2 -2,-2 0,-1 1,-1 2,-1 0,0 0,1 1,1 1,1 1,0 2,-1 1,0 1,-1 2,-1 1,-2 2,0 1,0zm-4 1c-1,0 -1,0 -2,-1 -1,-1 -2,0 -2,1 -1,1 0,2 0,2 4,4 4,3 8,-1 1,-1 2,-2 1,-3 -1,-2 -2,-1 -3,0 -1,1 -2,2 -2,2z"/>
   <path fill="#0E121C" d="M13 20c0,0 1,1 1,2 0,0 1,1 1,2 0,-1 1,-1 1,-2 1,-1 0,-1 4,-1 0,0 -2,-4 -2,-4 -1,0 -1,1 -2,1 0,0 -1,-1 -1,0 0,0 -1,2 -2,2z"/>
   <path fill="#0E121C" d="M6 23c0,0 0,0 0,0 0,0 0,0 0,0l0 0c0,0 0,0 1,-1l1 -2c0,-1 -1,-1 -1,-1 -1,0 -1,-1 -1,-1 -1,-1 -1,0 -3,-1 0,1 -1,3 -2,4 1,0 3,-1 3,0 1,1 1,2 2,2z"/>
   <path fill="#0E121C" d="M14 8c1,0 0,-2 -1,0 -1,0 -1,1 -2,1 -1,1 -1,2 -2,1 -1,0 -1,-1 -1,-1 -1,0 -2,0 -2,1 0,0 2,1 2,2 1,0 1,1 3,0l3 -4z"/>
  </g>
 </g>
</svg>
