<?xml version="1.0" encoding="UTF-8"?>
<!DOCTYPE svg PUBLIC "-//W3C//DTD SVG 1.1//EN" "http://www.w3.org/Graphics/SVG/1.1/DTD/svg11.dtd">
<!-- Creator: CorelDRAW X7 -->
<svg xmlns="http://www.w3.org/2000/svg" xml:space="preserve" width="3.0505mm" height="3.1268mm" version="1.1" shape-rendering="geometricPrecision" text-rendering="geometricPrecision" image-rendering="optimizeQuality" fill-rule="evenodd" clip-rule="evenodd"
viewBox="0 0 18 19"
 xmlns:xlink="http://www.w3.org/1999/xlink">
 <g id="Layer_x0020_1">
  <metadata id="CorelCorpID_0Corel-Layer"/>
  <g id="_910355864">
   <path fill="#3ABEFE" d="M12 15l4 0 0 1 -4 0 0 -1zm-3 0c0,0 1,0 1,0 0,0 0,0 0,0 0,0 0,0 1,0 0,0 0,1 0,1 0,0 0,0 0,0l-2 0 0 -1zm3 -2l4 0 0 1 -4 0 0 -1zm-3 0c0,0 0,0 1,0 0,0 0,0 0,0l0 0c0,0 0,0 1,0l0 1c0,0 0,0 0,0l-2 0 0 -1zm2 -3c0,0 0,0 0,1 0,0 0,0 0,0 0,0 0,0 0,1 -1,0 -1,0 -1,0 0,0 0,0 0,0 -1,0 -1,0 -1,0l0 -2 2 0zm5 2c0,0 -1,0 -1,0l-3 0c0,0 0,0 0,-1l0 -1 4 0 0 2zm-4 -4c-3,0 -5,2 -5,6 0,3 3,5 6,5 3,0 6,-3 5,-6 0,-3 -3,-6 -6,-5z"/>
   <path fill="#3ABEFE" d="M8 18c0,0 0,0 0,0 0,0 0,0 0,0 0,0 -1,0 -1,-1 0,0 0,0 -1,0 -1,0 -3,-1 -4,-1 -1,-1 -1,-2 -1,-3 0,0 1,0 1,0 0,0 0,1 0,1 1,0 1,0 1,0 1,0 2,1 3,1 0,0 0,-1 0,-1 0,0 0,0 0,0 -1,0 -1,-1 -2,-1 -1,0 -2,-1 -3,-1 0,-1 0,-2 0,-2l1 0c0,0 0,0 0,0 1,1 2,1 3,1 0,0 1,0 1,0 0,0 0,0 0,0 0,0 1,0 1,-1 -1,0 -1,0 -1,0 -1,0 -1,0 -1,0 -2,0 -3,-1 -4,-2 0,0 0,0 0,-1 0,0 0,0 0,-1 0,0 0,0 1,0 1,1 2,2 3,2 1,0 2,0 3,0 0,0 0,0 1,0 0,0 0,-1 0,-1 1,0 1,0 1,0 0,0 -1,0 -1,0 -1,0 -1,0 -1,0 -1,0 -2,0 -3,0 -1,0 -2,-1 -3,-2 0,0 -1,0 -1,-1 0,-1 1,-1 1,-1 1,-1 2,-1 4,-2 2,0 6,0 8,1 1,0 3,1 2,2 0,1 -1,2 -2,2 0,0 0,0 -1,0 0,0 1,1 2,1 0,0 0,0 1,0 0,-1 0,-1 0,-1l0 1c0,0 1,1 1,1 0,0 0,0 0,0 0,0 0,0 0,0 0,-1 0,-2 0,-3 0,-1 0,-2 0,-3 -1,-1 -3,-1 -5,-2 -2,0 -4,0 -6,0 -2,0 -6,2 -6,4 0,0 0,2 0,3 0,2 0,4 0,7 0,1 0,1 1,2 0,1 1,1 2,1 1,1 3,1 5,1z"/>
   <path fill="#0E121C" d="M16 12l0 -2 -4 0 0 1c0,1 0,1 0,1l3 0c0,0 1,0 1,0z"/>
   <polygon fill="#0E121C" points="12,16 16,16 16,15 12,15 "/>
   <polygon fill="#0E121C" points="12,14 16,14 16,13 12,13 "/>
   <path fill="#0E121C" d="M11 10l-2 0 0 2c0,0 0,0 1,0 0,0 0,0 0,0 0,0 0,0 1,0 0,-1 0,-1 0,-1 0,0 0,0 0,0 0,-1 0,-1 0,-1z"/>
   <path fill="#0E121C" d="M9 13l0 1 2 0c0,0 0,0 0,0l0 -1c-1,0 -1,0 -1,0l0 0c0,0 0,0 0,0 -1,0 -1,0 -1,0z"/>
   <path fill="#0E121C" d="M11 16c0,0 0,0 0,0 0,0 0,-1 0,-1 -1,0 -1,0 -1,0 0,0 0,0 0,0 0,0 -1,0 -1,0l0 1 2 0z"/>
  </g>
 </g>
</svg>
