<?xml version="1.0" encoding="UTF-8"?>
<!DOCTYPE svg PUBLIC "-//W3C//DTD SVG 1.1//EN" "http://www.w3.org/Graphics/SVG/1.1/DTD/svg11.dtd">
<!-- Creator: CorelDRAW X7 -->
<svg xmlns="http://www.w3.org/2000/svg" xml:space="preserve" width="4.6302mm" height="3.7442mm" version="1.1" shape-rendering="geometricPrecision" text-rendering="geometricPrecision" image-rendering="optimizeQuality" fill-rule="evenodd" clip-rule="evenodd"
viewBox="0 0 27 22"
 xmlns:xlink="http://www.w3.org/1999/xlink">
 <g id="Layer_x0020_1">
  <metadata id="CorelCorpID_0Corel-Layer"/>
  <g id="_910981456">
   <path fill="#3ABEFE" d="M20 16l3 0 0 2 -3 0 0 -2zm-5 2c0,0 0,-2 0,-2l3 0 0 2 -3 0zm-6 -2l3 0c0,0 0,2 0,2l-3 0 0 -2zm-5 0l3 0 0 2 -3 0 0 0 0 -2 0 0zm16 -6c0,0 0,0 0,0l3 0c0,1 0,1 0,2 0,0 0,1 0,1l-3 0 0 -3zm-5 0l3 0 0 3 -3 0 0 -3zm-6 0l3 0 0 3 -3 0 0 -3zm-2 0l0 3 -3 0c0,0 0,0 0,0 0,0 0,0 0,0 0,-1 0,-2 0,-3l3 0c0,0 0,0 0,0zm-6 -4c0,0 0,-1 0,-1 0,-1 0,-1 0,-1 1,-1 2,-1 3,-1l0 -1c0,0 -2,0 -2,0 -1,0 -1,1 -2,1 0,1 0,1 0,2l0 14c0,1 0,1 0,2 1,1 3,1 4,1l19 0c1,0 3,0 4,-1 0,-1 0,-1 0,-2l0 -14c0,-1 0,-1 0,-2 -1,0 -1,-1 -2,-1 -1,0 -2,0 -2,0l0 1c1,0 2,0 3,1 0,0 0,0 0,1 0,0 0,1 0,2l-25 -1z"/>
   <polygon fill="#3ABEFE" points="6,3 20,3 20,3 20,2 6,2 "/>
   <path fill="#3ABEFE" d="M21 0c0,0 0,1 0,1 0,0 0,1 0,1 0,1 0,3 1,2 0,0 0,0 0,-1l0 -2c0,-1 0,-1 -1,-1z"/>
   <path fill="#3ABEFE" d="M5 1l0 3c0,1 1,1 1,0l0 -3c0,-1 -1,-1 -1,0z"/>
  </g>
 </g>
</svg>
