<?xml version="1.0" encoding="UTF-8"?>
<!DOCTYPE svg PUBLIC "-//W3C//DTD SVG 1.1//EN" "http://www.w3.org/Graphics/SVG/1.1/DTD/svg11.dtd">
<!-- Creator: CorelDRAW X7 -->
<svg xmlns="http://www.w3.org/2000/svg" xml:space="preserve" width="3.472mm" height="3.2392mm" version="1.1" shape-rendering="geometricPrecision" text-rendering="geometricPrecision" image-rendering="optimizeQuality" fill-rule="evenodd" clip-rule="evenodd"
viewBox="0 0 24 22"
 xmlns:xlink="http://www.w3.org/1999/xlink">
 <g id="Layer_x0020_1">
  <metadata id="CorelCorpID_0Corel-Layer"/>
  <g id="_911969136">
   <path fill="#3ABEFE" d="M11 10c0,0 0,0 0,0 2,-1 3,-4 3,-6 -2,-5 -10,-5 -11,0 0,2 0,4 2,5 0,1 0,1 1,1 0,0 -1,0 -1,0 -1,1 -1,1 -2,1 -1,1 -1,2 -2,3 -1,2 -1,4 -1,7 0,0 0,1 1,1 0,0 1,0 2,0l12 0 0 0c0,0 -1,-1 -1,-2 -1,-1 -1,-4 -1,-5 1,-1 1,-2 2,-2 0,-1 0,-1 -1,-1 -1,-1 -2,-2 -3,-2z"/>
   <path fill="#3ABEFE" d="M18 19c0,1 0,1 -2,1 0,0 0,0 0,-1 0,0 0,0 0,0l1 -2c1,0 1,0 1,-1 0,-1 0,-1 1,-2 1,0 3,1 3,2 0,1 -1,2 -1,2 -1,0 -1,0 -2,0 0,0 0,0 0,1 0,0 0,0 -1,0 0,1 1,0 0,0zm-4 -1c0,2 2,4 5,4 3,0 5,-2 5,-5 -1,-3 -3,-5 -6,-5 -2,0 -4,3 -4,6z"/>
   <path fill="#3ABEFE" d="M20 15c0,0 0,1 0,1 0,0 0,0 0,0 1,0 1,-1 0,-1z"/>
  </g>
 </g>
</svg>
