<?xml version="1.0" encoding="UTF-8"?>
<!DOCTYPE svg PUBLIC "-//W3C//DTD SVG 1.1//EN" "http://www.w3.org/Graphics/SVG/1.1/DTD/svg11.dtd">
<!-- Creator: CorelDRAW X7 -->
<svg xmlns="http://www.w3.org/2000/svg" xml:space="preserve" width="2.4011mm" height="2.8439mm" version="1.1" shape-rendering="geometricPrecision" text-rendering="geometricPrecision" image-rendering="optimizeQuality" fill-rule="evenodd" clip-rule="evenodd"
viewBox="0 0 11 13"
 xmlns:xlink="http://www.w3.org/1999/xlink">
 <g id="Layer_x0020_1">
  <metadata id="CorelCorpID_0Corel-Layer"/>
  <g id="_912986376">
   <path fill="#3ABEFE" d="M5 6c1,-1 1,0 1,0 0,0 0,0 0,1l0 4c0,1 -1,1 -1,1 0,0 0,-4 0,-5 0,-1 0,-1 0,-1zm-2 0c0,-1 0,0 0,0 0,0 0,1 0,1l0 3c0,1 1,2 0,2 0,0 0,0 0,0 -1,0 -1,-4 -1,-5 0,-1 0,-1 1,-1zm5 0c1,-1 1,0 1,0 0,0 0,1 0,1l0 4c0,1 -1,1 -1,1 0,-1 0,-3 0,-3 0,-1 0,-1 0,-2 0,-1 0,-1 0,-1zm-7 -2c0,0 0,0 0,0l0 8c0,1 0,1 1,1 0,0 3,0 4,0 1,0 2,0 3,0 1,0 1,0 1,-1l1 -8c0,0 0,0 -1,0l-9 0z"/>
   <path fill="#3ABEFE" d="M8 1l-4 0c-1,0 -2,0 -3,0 -1,0 -1,1 -1,2 1,0 1,0 1,0l9 0c0,0 1,0 1,0 0,0 0,-1 0,-1 0,-1 0,-1 -1,-1 0,0 -2,0 -2,0z"/>
   <path fill="#3ABEFE" d="M4 1l4 0c0,-1 0,-1 -2,-1 -1,0 -1,0 -2,0 0,0 0,0 0,1z"/>
  </g>
 </g>
</svg>
