<?xml version="1.0" encoding="UTF-8"?>
<!DOCTYPE svg PUBLIC "-//W3C//DTD SVG 1.1//EN" "http://www.w3.org/Graphics/SVG/1.1/DTD/svg11.dtd">
<!-- Creator: CorelDRAW X7 -->
<svg xmlns="http://www.w3.org/2000/svg" xml:space="preserve" width="5.2166mm" height="3.6095mm" version="1.1" shape-rendering="geometricPrecision" text-rendering="geometricPrecision" image-rendering="optimizeQuality" fill-rule="evenodd" clip-rule="evenodd"
viewBox="0 0 34 23"
 xmlns:xlink="http://www.w3.org/1999/xlink">
 <g id="Layer_x0020_1">
  <metadata id="CorelCorpID_0Corel-Layer"/>
  <g id="_912769112">
   <path fill="#3ABEFE" d="M17 17l-4 -4c0,0 -1,0 -1,0 0,0 0,0 0,-1 -1,-1 -3,-2 -4,-4l-2 -1c-1,-1 -1,-1 -1,-1l-4 -4c0,0 0,0 -1,0 0,0 0,0 0,1l0 17c0,2 0,2 0,2 1,0 2,-1 2,-2l4 -3c0,-1 1,-1 1,-2 0,0 1,0 1,-1 0,1 1,1 1,2l-6 6c-1,1 -1,1 -1,1 0,0 0,0 1,0l28 0c1,0 1,0 1,0 0,0 -4,-4 -5,-5 0,0 -2,-2 -3,-3 0,0 1,-1 1,-1 1,1 4,4 5,5l3 3c0,0 0,0 0,0 1,0 1,-1 1,-2 0,-2 0,-17 0,-18 0,0 0,0 -1,-1 0,0 -1,2 -1,2 0,0 0,0 -1,0l-8 8c0,1 -1,1 -1,1l-5 5z"/>
   <path fill="#3ABEFE" d="M1 0c1,1 2,1 2,2 0,0 0,0 0,0l2 2c0,0 0,0 0,0 1,1 2,1 2,2 0,0 1,0 1,0l3 4c0,0 0,0 1,0 0,0 0,0 0,0l5 5c0,0 1,-1 1,-1l4 -4c0,0 0,0 1,-1 0,0 1,-1 2,-1 0,-1 1,-2 1,-2 1,0 1,0 1,-1 0,0 1,-1 2,-1 0,-1 0,-1 0,-1 1,0 1,-1 1,-1 1,0 2,-1 2,-2 0,0 0,0 -1,0l-28 0c-1,0 -1,0 -2,0z"/>
  </g>
 </g>
</svg>
