<?xml version="1.0" encoding="UTF-8"?>
<!DOCTYPE svg PUBLIC "-//W3C//DTD SVG 1.1//EN" "http://www.w3.org/Graphics/SVG/1.1/DTD/svg11.dtd">
<!-- Creator: CorelDRAW X7 -->
<svg xmlns="http://www.w3.org/2000/svg" xml:space="preserve" width="4.6527mm" height="4.6407mm" version="1.1" shape-rendering="geometricPrecision" text-rendering="geometricPrecision" image-rendering="optimizeQuality" fill-rule="evenodd" clip-rule="evenodd"
viewBox="0 0 27 27"
 xmlns:xlink="http://www.w3.org/1999/xlink">
 <g id="Layer_x0020_1">
  <metadata id="CorelCorpID_0Corel-Layer"/>
  <g id="_911003776">
   <path fill="#3ABEFE" d="M15 20c-1,0 -1,-1 -2,-1l-1 -1c-1,-1 -5,-5 -5,-6 0,-1 4,-2 1,-6 -1,-1 -2,-3 -4,-2 -1,0 -2,1 -2,1 -1,1 -1,1 -2,2 -1,3 2,7 3,9 0,1 2,3 3,4 0,0 1,1 2,2 0,0 0,0 0,0 2,1 3,2 5,3 2,1 5,3 7,2 1,-1 1,-1 2,-2 1,-1 2,-2 1,-4 -1,-1 -2,-2 -4,-3 -1,0 -3,1 -4,2z"/>
   <path fill="#3ABEFE" d="M26 8c-1,-1 -2,-3 -3,-3 0,-1 0,-1 0,-1 -1,-1 -2,-2 -4,-3 -3,-1 -5,-1 -7,-1l0 2c2,0 4,0 6,1 4,1 7,5 7,9 1,2 0,2 0,3 1,0 2,0 2,0 0,-2 0,-4 -1,-7z"/>
   <path fill="#3ABEFE" d="M12 5c0,0 1,0 2,0 3,0 5,2 7,4 1,2 1,4 1,6l2 0c0,-2 -1,-5 -2,-7 -1,-2 -3,-3 -5,-4 -2,-1 -3,-1 -5,-1l0 2z"/>
   <path fill="#3ABEFE" d="M12 8c2,0 4,1 5,2 2,2 2,5 2,5l1 0c1,-4 -1,-7 -4,-8 -2,0 -3,0 -4,0l0 1z"/>
  </g>
 </g>
</svg>
