<?xml version="1.0" encoding="UTF-8"?>
<!DOCTYPE svg PUBLIC "-//W3C//DTD SVG 1.1//EN" "http://www.w3.org/Graphics/SVG/1.1/DTD/svg11.dtd">
<!-- Creator: CorelDRAW X7 -->
<svg xmlns="http://www.w3.org/2000/svg" xml:space="preserve" width="4.1494mm" height="5.0343mm" version="1.1" shape-rendering="geometricPrecision" text-rendering="geometricPrecision" image-rendering="optimizeQuality" fill-rule="evenodd" clip-rule="evenodd"
viewBox="0 0 21 26"
 xmlns:xlink="http://www.w3.org/1999/xlink">
 <g id="Layer_x0020_1">
  <metadata id="CorelCorpID_0Corel-Layer"/>
  <g id="_600311840">
   <g>
    <path fill="#3ABEFE" d="M11 0c3,0 6,3 6,6 0,4 -3,7 -6,7 -4,0 -6,-3 -6,-7 0,-3 2,-6 6,-6zm0 1c2,0 5,2 5,5 0,3 -3,6 -5,6 -3,0 -5,-3 -5,-6 0,-3 2,-5 5,-5z"/>
    <path fill="#3ABEFE" d="M0 25c0,-4 1,-7 4,-9 3,-2 8,-3 11,-1 5,2 7,5 6,10l0 1 -21 0 0 -1zm1 0l19 0c1,-10 -10,-12 -15,-8 -3,2 -4,5 -4,8z"/>
   </g>
   <g>
    <g>
     <path fill="#3ABEFE" stroke="#3ABEFE" stroke-width="0.39361" d="M11 1c3,0 5,3 5,6 0,3 -2,6 -5,6 -3,0 -6,-3 -6,-6 0,-3 3,-6 6,-6zm0 1c2,0 4,2 4,5 0,3 -2,5 -4,5 -3,0 -5,-2 -5,-5 0,-3 2,-5 5,-5z"/>
     <path fill="#3ABEFE" stroke="#3ABEFE" stroke-width="0.39361" d="M1 24c0,-4 1,-6 4,-8 2,-2 7,-3 10,-1 4,1 6,5 5,9l0 1 -19 0 0 -1zm1 0l17 0c1,-9 -9,-11 -14,-7 -2,2 -3,4 -3,7z"/>
    </g>
    <path fill="#3ABEFE" stroke="#3ABEFE" stroke-width="1.0331" d="M19 24c1,-9 -9,-11 -14,-7 -2,2 -3,4 -3,7l17 0z"/>
    <path fill="#3ABEFE" stroke="#3ABEFE" stroke-width="1.0331" d="M15 7c0,-3 -2,-5 -4,-5 -3,0 -5,2 -5,5 0,3 2,5 5,5 2,0 4,-2 4,-5z"/>
   </g>
  </g>
 </g>
</svg>
