<?xml version="1.0" encoding="UTF-8"?>
<!DOCTYPE svg PUBLIC "-//W3C//DTD SVG 1.1//EN" "http://www.w3.org/Graphics/SVG/1.1/DTD/svg11.dtd">
<!-- Creator: CorelDRAW X7 -->
<svg xmlns="http://www.w3.org/2000/svg" xml:space="preserve" width="3.0115mm" height="3.011mm" version="1.1" shape-rendering="geometricPrecision" text-rendering="geometricPrecision" image-rendering="optimizeQuality" fill-rule="evenodd" clip-rule="evenodd"
viewBox="0 0 18 18"
 xmlns:xlink="http://www.w3.org/1999/xlink">
 <g id="Layer_x0020_1">
  <metadata id="CorelCorpID_0Corel-Layer"/>
  <g id="_915182760">
   <path fill="#3ABEFE" d="M12 17c0,0 1,-1 1,-2 1,-1 0,-1 3,-1 -1,1 -3,2 -4,3zm-2 0l0 -3 3 0c-1,1 -1,1 -1,2 -1,0 -1,1 -2,1zm-4 -3l0 0 0 0 3 0 0 0 0 3c-1,0 -3,-2 -3,-3zm-3 0l2 0c0,0 0,1 1,1 0,1 0,1 1,2 -2,-1 -4,-2 -4,-3zm10 -1l-3 0 0 -3 4 0c-1,1 -1,2 -1,3zm-8 -3l4 0 0 3 -3 0c-1,-1 -1,-2 -1,-3zm-4 0l3 0c0,2 1,2 1,3l-3 0c0,-1 0,-2 -1,-3zm15 3l-2 0c0,-1 0,-1 0,-3l3 0c0,1 0,2 -1,3zm-6 -8l3 0c0,2 1,3 1,4l-4 0 0 -4zm-5 3c0,0 0,0 1,0 1,-1 2,-2 2,-3l1 0c0,1 0,4 0,4l-4 0c0,0 0,0 0,-1zm-1 1l-3 0c0,-1 0,-1 1,-2 1,1 1,1 2,1l0 1zm10 -4l2 0c0,1 1,1 1,2 0,1 0,1 0,2l-3 0c0,-2 0,-2 0,-4zm-4 -4c1,1 2,2 3,4l-3 0 0 -4zm-3 4c0,4 -7,3 -6,-1 0,-2 2,-4 4,-3 1,0 3,2 2,4zm1 -3c0,0 0,0 1,-1l0 4 -1 0c0,-2 0,-2 0,-3zm4 0c1,0 3,2 4,3l-2 0c-1,-1 -1,-1 -1,-2 0,0 -1,-1 -1,-1zm-12 3c0,0 0,1 1,1 0,1 0,1 0,1 -1,4 1,8 4,10 6,3 11,0 12,-4 3,-7 -3,-13 -9,-12 -2,0 -1,0 -2,0 -3,-2 -7,0 -6,4z"/>
   <path fill="#3ABEFE" d="M6 3l0 -1c-1,1 -2,3 -3,3 0,0 -1,-1 -1,-1l0 1c0,0 1,1 1,1l3 -3z"/>
  </g>
 </g>
</svg>
