<?xml version="1.0" encoding="UTF-8"?>
<!DOCTYPE svg PUBLIC "-//W3C//DTD SVG 1.1//EN" "http://www.w3.org/Graphics/SVG/1.1/DTD/svg11.dtd">
<!-- Creator: CorelDRAW X7 -->
<svg xmlns="http://www.w3.org/2000/svg" xml:space="preserve" width="3.3851mm" height="4.0602mm" version="1.1" shape-rendering="geometricPrecision" text-rendering="geometricPrecision" image-rendering="optimizeQuality" fill-rule="evenodd" clip-rule="evenodd"
viewBox="0 0 23 28"
 xmlns:xlink="http://www.w3.org/1999/xlink">
 <g id="Layer_x0020_1">
  <metadata id="CorelCorpID_0Corel-Layer"/>
  <g id="_462650288">
   <path fill="#3ABEFE" d="M10 21c0,-1 0,-2 1,-3 0,-1 1,-2 3,-3 4,-1 8,1 8,6 0,3 -3,6 -6,6 -3,0 -6,-3 -6,-6zm-1 2l-8 0 0 -22 11 0 0 4c0,1 0,1 1,1l4 0 0 8c-5,-1 -10,5 -8,9zm4 -21l3 3 -3 0 0 -3zm-13 -1c0,3 0,21 0,23l10 0c3,5 10,5 13,0 1,-3 0,-6 -1,-8 -1,-1 -3,-1 -4,-2l0 -7c0,-2 0,-2 -2,-4 -1,-1 -3,-3 -4,-3l-11 0c-1,0 -1,0 -1,1z"/>
   <path fill="#3ABEFE" d="M3 8l11 0c2,0 1,-1 1,-1l-12 0c0,0 0,1 0,1z"/>
   <path fill="#3ABEFE" d="M3 10c0,1 0,1 0,1l12 0c0,0 0,-1 0,-1l-12 0c0,0 0,0 0,0z"/>
   <path fill="#3ABEFE" d="M15 22c0,0 -1,-1 -2,-2l-1 1c0,0 0,0 1,1 0,0 0,0 1,0 2,2 1,2 4,-1 0,0 2,-2 2,-3 -1,0 -1,0 -3,2l-2 2z"/>
   <path fill="#3ABEFE" d="M3 13l8 0c1,0 2,1 2,0 0,0 0,-1 0,-1l-10 0c0,0 0,1 0,1z"/>
   <path fill="#3ABEFE" d="M3 15c0,1 0,1 1,1 1,0 4,0 6,0 0,-1 0,-1 -1,-1l-6 0c0,0 0,0 0,0z"/>
   <path fill="#3ABEFE" d="M3 18c-1,1 4,1 4,1 2,0 1,-2 1,-2l-5 0c0,0 0,1 0,1z"/>
  </g>
 </g>
</svg>
