<?xml version="1.0" encoding="UTF-8"?>
<!DOCTYPE svg PUBLIC "-//W3C//DTD SVG 1.1//EN" "http://www.w3.org/Graphics/SVG/1.1/DTD/svg11.dtd">
<!-- Creator: CorelDRAW X7 -->
<svg xmlns="http://www.w3.org/2000/svg" xml:space="preserve" width="4.7838mm" height="4.7837mm" version="1.1" shape-rendering="geometricPrecision" text-rendering="geometricPrecision" image-rendering="optimizeQuality" fill-rule="evenodd" clip-rule="evenodd"
viewBox="0 0 28 28"
 xmlns:xlink="http://www.w3.org/1999/xlink">
 <g id="Layer_x0020_1">
  <metadata id="CorelCorpID_0Corel-Layer"/>
  <g id="_912910856">
   <circle fill="#3ABEFE" stroke="#3ABEFE" stroke-width="1.18809" cx="14" cy="14" r="14"/>
   <g>
    <g>
     <path fill="#FEFEFE" stroke="#0E121C" stroke-width="0.452661" d="M14 6c2,0 4,2 4,4 0,2 -2,4 -4,4 -2,0 -4,-2 -4,-4 0,-2 2,-4 4,-4zm0 1c2,0 3,1 3,3 0,2 -1,3 -3,3 -2,0 -3,-1 -3,-3 0,-2 1,-3 3,-3z"/>
     <path fill="#FEFEFE" stroke="#0E121C" stroke-width="0.452661" d="M7 22c0,-3 1,-4 3,-6 2,-1 5,-2 7,-1 3,1 4,4 4,7l0 0 -14 0 0 0zm1 0l12 0c1,-6 -6,-8 -10,-5 -1,1 -2,3 -2,5z"/>
    </g>
    <path fill="#0E121C" stroke="#0E121C" stroke-width="1.18809" d="M20 22c1,-6 -6,-8 -10,-5 -1,1 -2,3 -2,5l12 0z"/>
    <path fill="#0E121C" stroke="#0E121C" stroke-width="1.18809" d="M17 10c0,-2 -1,-3 -3,-3 -2,0 -3,1 -3,3 0,2 1,3 3,3 2,0 3,-1 3,-3z"/>
   </g>
  </g>
 </g>
</svg>
