<?xml version="1.0" encoding="UTF-8"?>
<!DOCTYPE svg PUBLIC "-//W3C//DTD SVG 1.1//EN" "http://www.w3.org/Graphics/SVG/1.1/DTD/svg11.dtd">
<!-- Creator: CorelDRAW X7 -->
<svg xmlns="http://www.w3.org/2000/svg" xml:space="preserve" width="2.5066mm" height="1.8181mm" version="1.1" shape-rendering="geometricPrecision" text-rendering="geometricPrecision" image-rendering="optimizeQuality" fill-rule="evenodd" clip-rule="evenodd"
viewBox="0 0 13 9"
 xmlns:xlink="http://www.w3.org/1999/xlink">
 <g id="Layer_x0020_1">
  <metadata id="CorelCorpID_0Corel-Layer"/>
  <g id="_465713872">
   <path fill="white" d="M3 5l0 0c0,-2 2,-3 3,-3 2,0 3,2 3,3 0,2 -1,3 -3,3 -1,0 -1,0 -2,-1 0,0 0,0 0,-1 -1,0 -1,0 -1,-1zm8 -2c1,0 1,0 1,0 0,0 0,1 0,1 -1,0 -1,0 -1,-1 0,0 0,0 0,0zm-8 -1l0 0c0,0 0,0 0,0 0,0 0,0 -1,0 0,0 0,0 0,0 0,0 0,0 0,0 0,0 0,0 0,0 -1,0 -1,0 -1,0 0,0 0,0 0,0 0,0 0,0 0,0 -1,0 -1,0 -1,1 0,0 0,1 0,1 0,0 0,0 0,1l0 3c0,0 0,0 0,1 0,0 0,0 1,0 0,0 0,0 1,0l9 0c1,0 1,0 1,0 1,0 1,-1 1,-2l0 -3c0,-1 0,-1 0,-1 -1,-1 -1,-1 -1,-1 0,0 0,0 -1,0 0,0 0,0 -1,0 0,0 0,0 -1,0 0,0 0,-1 -1,-2 0,0 0,0 0,0l-3 0c0,0 -1,0 -1,0 0,1 0,1 0,2 0,0 0,0 0,0 -1,0 -1,0 -1,0z"/>
   <path fill="white" d="M6 3c-1,0 -2,1 -2,2 0,1 1,2 2,2 2,0 3,-1 2,-2 0,-1 -1,-2 -2,-2z"/>
  </g>
 </g>
</svg>
