<?xml version="1.0" encoding="UTF-8"?>
<!DOCTYPE svg PUBLIC "-//W3C//DTD SVG 1.1//EN" "http://www.w3.org/Graphics/SVG/1.1/DTD/svg11.dtd">
<!-- Creator: CorelDRAW X7 -->
<svg xmlns="http://www.w3.org/2000/svg" xml:space="preserve" width="3.5352mm" height="2.564mm" version="1.1" shape-rendering="geometricPrecision" text-rendering="geometricPrecision" image-rendering="optimizeQuality" fill-rule="evenodd" clip-rule="evenodd"
viewBox="0 0 16 12"
 xmlns:xlink="http://www.w3.org/1999/xlink">
 <g id="Layer_x0020_1">
  <metadata id="CorelCorpID_0Corel-Layer"/>
  <g id="_462375800">
   <path fill="#3ABEFE" d="M4 7l0 -1c0,-2 2,-3 4,-3 2,0 4,1 4,4 0,2 -2,3 -4,3 -1,0 -2,0 -3,-1 0,0 0,0 -1,-1 0,0 0,-1 0,-1zm10 -4c1,0 1,1 1,1 0,0 0,1 -1,1 0,0 0,-1 0,-1 0,0 0,-1 0,-1zm-10 0l0 0c0,-1 0,-1 -1,-1 0,0 0,0 0,0 0,0 0,0 0,0 0,0 0,0 0,0 -1,0 -1,0 -1,0 0,0 0,0 0,0 -1,0 -1,0 -1,1 0,0 0,0 0,0 -1,0 -1,0 -1,1 0,0 0,0 0,1 0,0 0,1 0,1l0 4c0,0 0,0 0,1 0,0 1,0 1,0 0,1 1,1 1,1l12 0c1,0 1,-1 1,-1 1,0 1,-1 1,-2l0 -5c0,0 0,0 0,-1 0,0 -1,0 -1,0 0,-1 0,0 -1,0 0,0 -1,0 -1,0 -1,0 -1,0 -1,0 0,-1 -1,-2 -1,-2 -1,-1 -1,-1 -2,-1l-3 0c0,0 0,0 -1,1 0,0 0,1 0,1 -1,0 -1,0 -1,0 0,0 0,0 0,1z"/>
   <path fill="#3ABEFE" d="M8 4c-2,0 -3,1 -3,3 0,1 2,2 3,2 2,0 3,-1 3,-3 0,-1 -2,-2 -3,-2z"/>
  </g>
 </g>
</svg>
