<?xml version="1.0" encoding="UTF-8"?>
<!DOCTYPE svg PUBLIC "-//W3C//DTD SVG 1.1//EN" "http://www.w3.org/Graphics/SVG/1.1/DTD/svg11.dtd">
<!-- Creator: CorelDRAW X7 -->
<svg xmlns="http://www.w3.org/2000/svg" xml:space="preserve" width="7.3378mm" height="7.3526mm" version="1.1" shape-rendering="geometricPrecision" text-rendering="geometricPrecision" image-rendering="optimizeQuality" fill-rule="evenodd" clip-rule="evenodd"
viewBox="0 0 290 291"
 xmlns:xlink="http://www.w3.org/1999/xlink">
 <defs>
    <linearGradient id="id0" gradientUnits="userSpaceOnUse" x1="78.7376" y1="48.8122" x2="211.376" y2="241.886">
     <stop offset="0" stop-opacity="1" stop-color="#0387DC"/>
     <stop offset="1" stop-opacity="1" stop-color="#02076D"/>
    </linearGradient>
 </defs>
 <g id="Layer_x0020_1">
  <metadata id="CorelCorpID_0Corel-Layer"/>
  <g id="_462017584">
   <polygon fill="url(#id0)" points="139,0 139,0 153,0 153,0 153,0 153,0 153,0 153,0 153,0 153,0 153,0 153,0 153,0 153,0 153,0 153,0 154,0 154,0 154,0 154,0 154,0 154,0 154,0 154,0 154,0 154,0 154,0 154,0 155,0 155,0 155,0 155,0 155,0 155,0 155,0 155,0 156,0 156,0 156,0 156,0 156,0 156,0 156,1 156,1 157,1 157,1 157,1 157,1 157,1 157,1 157,1 157,1 158,1 158,1 158,1 158,1 158,1 158,1 159,1 159,1 159,1 159,1 159,1 159,1 160,1 160,1 160,1 160,1 160,1 160,1 161,1 161,1 161,1 161,1 161,1 161,1 162,1 162,1 162,1 162,1 162,1 162,1 163,1 163,1 163,1 163,1 163,1 163,1 163,1 163,1 164,1 164,1 164,1 164,1 164,1 164,1 165,1 165,1 165,1 165,1 165,1 165,1 165,1 165,1 166,1 166,1 166,2 166,2 166,2 166,2 166,2 166,2 167,2 167,2 167,2 167,2 167,2 167,2 167,2 167,2 168,2 168,2 168,2 168,2 168,2 168,2 168,2 168,2 168,2 168,2 168,2 168,2 169,2 169,2 170,2 170,2 170,2 170,2 171,2 171,2 172,2 172,2 172,2 172,2 173,3 173,3 173,3 173,3 174,3 174,3 175,3 175,3 175,3 175,3 176,3 176,3 177,3 177,3 177,4 177,4 178,4 178,4 179,4 179,4 179,4 179,4 180,4 180,4 181,4 181,4 181,4 181,4 182,5 182,5 182,5 182,5 183,5 183,5 184,5 184,5 184,5 184,5 185,5 185,5 186,6 186,6 186,6 186,6 187,6 187,6 187,6 187,6 188,6 188,6 189,7 189,7 189,7 189,7 190,7 190,7 191,7 191,7 191,7 191,7 192,8 192,8 192,8 192,8 193,8 193,8 194,8 194,8 194,8 194,8 195,9 195,9 195,9 195,9 196,9 196,9 197,9 197,9 197,10 197,10 198,10 198,10 198,10 198,10 199,10 199,10 200,10 200,10 200,11 200,11 201,11 201,11 201,11 201,11 202,11 202,11 203,12 203,12 203,12 203,12 204,12 204,12 204,13 204,13 205,13 205,13 206,13 206,13 206,13 206,13 207,14 207,14 207,14 207,14 208,14 208,14 208,14 208,14 209,15 209,15 209,15 209,15 210,15 210,15 210,15 210,15 211,16 211,16 211,16 211,16 212,16 212,16 212,16 212,16 213,16 213,16 213,17 213,17 213,17 213,17 214,17 214,17 214,17 214,17 215,18 215,18 215,18 215,18 216,18 216,18 216,18 216,18 217,19 217,19 217,19 217,19 217,19 217,19 218,19 218,19 218,20 218,20 219,20 219,20 219,20 219,20 220,20 220,20 220,21 220,21 220,21 220,21 221,21 221,21 221,21 221,21 222,22 222,22 222,22 222,22 222,22 222,22 223,22 223,22 223,23 223,23 224,23 224,23 224,23 224,23 225,23 225,23 225,24 225,24 225,24 225,24 226,24 226,24 226,24 226,24 227,25 227,25 227,25 227,25 227,25 227,25 228,26 228,26 228,26 228,26 229,26 229,26 229,26 229,26 229,27 229,27 230,27 230,27 230,27 230,27 230,28 230,28 231,28 231,28 231,28 231,28 232,28 232,28 232,29 232,29 232,29 232,29 233,29 233,29 233,30 233,30 234,30 234,30 234,30 234,30 234,30 234,30 235,31 235,31 249,43 249,43 249,43 249,43 249,43 249,43 249,43 249,43 249,44 249,44 249,44 249,44 249,44 249,44 249,44 249,44 250,44 250,44 250,44 250,44 250,44 250,44 250,45 250,45 250,45 250,45 250,45 250,45 250,45 250,45 251,45 251,45 251,45 251,45 251,45 251,45 251,46 251,46 251,46 251,46 251,46 251,46 251,46 251,46 251,46 251,46 252,46 252,46 252,46 252,46 252,46 252,46 252,47 252,47 252,47 252,47 252,47 252,47 252,47 252,47 252,47 252,47 253,47 253,47 253,47 253,47 253,48 253,48 253,48 253,48 253,48 253,48 253,48 253,48 253,48 253,48 254,48 254,48 254,48 254,48 254,48 254,48 254,49 254,49 254,49 254,49 254,49 254,49 254,49 254,49 254,49 254,49 255,49 255,49 255,49 255,49 255,50 255,50 255,50 255,50 255,50 255,50 255,50 255,50 255,50 255,50 255,50 255,50 256,50 256,50 256,51 256,51 256,51 256,51 256,51 256,51 256,51 256,51 256,51 256,51 256,51 256,51 256,52 256,52 257,52 257,52 257,52 257,52 257,52 257,52 257,52 257,52 257,52 257,52 257,52 257,52 257,52 257,52 257,52 257,52 257,52 257,52 257,53 257,53 257,53 257,53 257,53 257,53 257,53 257,53 257,53 257,53 258,53 258,53 258,53 258,53 258,53 258,53 258,53 258,53 258,53 258,53 258,53 258,53 258,53 258,53 258,53 258,53 258,54 258,54 258,54 258,54 258,54 258,54 258,54 258,54 258,54 258,54 258,54 258,54 258,54 258,54 258,54 258,54 258,54 258,54 259,54 259,54 259,54 259,54 259,54 259,54 259,54 259,54 259,54 259,54 259,55 259,55 259,55 259,55 259,55 259,55 259,55 259,55 259,55 259,55 259,55 259,55 259,55 259,55 259,55 259,55 259,55 259,55 259,55 259,55 259,55 259,55 260,55 260,55 260,55 260,55 260,56 260,56 260,56 260,56 260,56 260,56 260,56 260,56 260,56 260,56 260,56 260,56 260,56 260,56 260,56 260,56 260,56 260,56 260,56 260,56 260,56 260,56 260,56 260,56 260,56 260,56 260,57 260,57 260,57 260,57 261,57 261,57 261,57 261,57 261,57 261,57 261,57 261,57 261,58 261,58 261,58 261,58 262,58 262,58 262,59 262,59 262,59 262,59 263,59 263,59 263,60 263,60 263,60 263,60 263,61 263,61 264,61 264,61 264,61 264,61 264,62 264,62 265,62 265,62 265,63 265,63 265,63 265,63 265,63 265,63 266,64 266,64 266,64 266,64 266,65 266,65 267,65 267,65 267,65 267,65 267,66 267,66 267,66 267,66 268,67 268,67 268,67 268,67 268,68 268,68 268,68 268,68 269,68 269,68 269,69 269,69 269,69 269,69 269,70 269,70 270,70 270,70 270,71 270,71 270,71 270,71 271,71 271,71 271,72 271,72 271,72 271,72 271,73 271,73 272,73 272,73 272,74 272,74 272,74 272,74 272,74 272,74 273,75 273,75 273,75 273,75 273,76 273,76 273,76 273,76 273,77 273,77 274,77 274,77 274,77 274,78 274,78 274,78 274,78 274,78 275,79 275,79 275,79 275,79 275,80 275,80 275,80 275,80 276,81 276,81 276,81 276,81 276,82 276,82 276,82 276,82 276,82 276,82 277,83 277,83 277,83 277,83 277,84 277,84 278,85 278,85 278,86 278,86 278,87 278,87 279,88 279,88 279,89 279,89 280,90 280,90 280,91 280,91 281,92 281,92 281,93 281,93 281,94 281,94 282,95 282,95 282,96 282,96 282,97 282,97 283,98 283,98 283,99 283,99 283,100 283,100 284,101 284,101 284,102 284,102 284,103 284,103 285,104 285,104 285,105 285,105 285,105 285,105 285,106 285,106 286,107 286,107 286,108 286,108 286,109 286,109 286,110 286,110 287,111 287,111 287,111 287,111 287,112 287,112 287,113 287,113 287,114 287,114 287,115 287,115 288,115 288,115 288,116 288,116 288,117 288,117 288,118 288,118 288,118 288,118 288,119 288,119 288,120 288,120 289,120 289,120 289,121 289,121 289,122 289,122 289,122 289,122 289,123 289,123 289,124 289,124 289,124 289,124 289,125 289,125 289,126 289,126 289,126 289,126 290,127 290,127 290,127 290,127 290,128 290,128 290,128 290,128 290,129 290,129 290,129 290,129 290,130 290,130 290,130 290,130 290,131 290,131 290,131 290,131 290,132 290,132 290,132 290,132 290,133 290,133 290,133 290,133 290,158 290,158 290,158 290,158 290,158 290,158 290,158 290,158 290,159 290,159 290,159 290,159 290,159 290,159 290,159 290,159 290,159 290,159 290,160 290,160 290,160 290,160 290,160 290,160 290,160 290,160 290,160 290,160 290,160 290,160 290,161 290,161 290,161 290,161 290,161 290,161 290,161 290,161 290,161 290,161 290,162 290,162 290,162 290,162 290,162 290,162 290,162 290,162 290,162 290,162 290,162 290,162 290,163 290,163 290,163 290,163 290,163 290,163 290,163 290,163 289,163 289,163 289,164 289,164 289,164 289,164 289,164 289,164 289,164 289,164 289,164 289,164 289,164 289,164 289,165 289,165 289,165 289,165 289,165 289,165 289,165 289,165 289,165 289,165 289,165 289,165 289,165 289,165 289,166 289,166 289,166 289,166 289,166 289,166 289,166 289,166 289,166 289,166 289,166 289,166 289,166 289,166 289,166 289,166 289,167 289,167 289,167 289,167 289,167 289,167 289,167 289,167 289,167 289,167 289,167 289,167 289,167 289,167 289,167 289,167 289,167 289,167 289,168 289,168 289,168 289,168 289,168 289,168 289,168 289,168 289,169 289,169 289,170 289,170 288,171 288,171 288,172 288,172 288,173 288,173 288,174 288,174 288,175 288,175 287,176 287,176 287,177 287,177 287,178 287,178 287,179 287,179 287,180 287,180 286,181 286,181 286,182 286,182 286,183 286,183 285,184 285,184 285,185 285,185 285,186 285,186 285,187 285,187 284,188 284,188 284,189 284,189 284,190 284,190 283,191 283,191 283,192 283,192 283,193 283,193 282,194 282,194 282,195 282,195 282,196 282,196 281,197 281,197 281,198 281,198 280,199 280,199 280,200 280,200 280,201 280,201 279,202 279,202 279,203 279,203 278,204 278,204 278,205 278,205 278,206 278,206 277,207 277,207 277,208 277,208 276,209 276,209 276,210 276,210 275,211 275,211 275,212 275,212 274,213 274,213 274,214 274,214 273,214 273,214 273,215 273,215 272,216 272,216 272,217 272,217 271,218 271,218 271,219 271,219 270,220 270,220 270,221 270,221 269,222 269,222 269,223 269,223 268,223 268,223 267,224 267,224 267,225 267,225 266,226 266,226 266,227 266,227 265,228 265,228 265,229 265,229 264,229 264,229 264,230 264,230 264,230 264,230 264,230 264,230 264,230 264,230 263,230 263,230 263,230 263,230 263,231 263,231 263,231 263,231 263,231 263,231 263,231 263,231 263,231 263,231 263,231 263,231 262,232 262,232 262,232 262,232 262,232 262,232 262,232 262,232 262,232 262,232 262,232 262,232 262,232 262,232 262,233 262,233 262,233 262,233 261,233 261,233 261,233 261,233 261,233 261,233 261,233 261,233 261,234 261,234 261,234 261,234 261,234 261,234 261,234 261,234 260,234 260,234 260,234 260,234 260,234 260,234 260,235 260,235 260,235 260,235 260,235 260,235 260,235 260,235 260,235 260,235 260,235 260,235 259,236 259,236 259,236 259,236 259,236 259,236 259,236 259,236 259,236 259,236 259,236 259,236 259,236 259,236 259,237 259,237 258,237 258,237 258,237 258,237 258,237 258,237 258,237 258,237 258,237 258,237 258,237 258,237 258,238 258,238 258,238 258,238 257,238 257,238 257,238 257,238 257,238 257,238 257,238 257,238 257,238 257,238 257,239 257,239 257,239 257,239 257,239 257,239 257,239 257,239 256,239 256,239 256,239 256,239 256,240 256,240 256,240 256,240 256,240 256,240 256,240 256,240 255,240 255,240 255,241 255,241 255,241 255,241 255,241 255,241 255,241 255,241 254,241 254,242 254,242 254,242 254,242 254,242 254,242 254,242 253,243 253,243 253,243 253,243 253,243 253,243 253,243 253,243 252,244 252,244 252,244 252,244 252,244 252,244 252,244 252,244 251,245 251,245 251,245 251,245 251,245 251,245 251,246 251,246 250,246 250,246 250,246 250,246 250,247 250,247 249,247 249,247 249,247 249,247 249,247 249,247 249,248 249,248 248,248 248,248 248,248 248,248 248,249 248,249 247,249 247,249 247,249 247,249 247,249 247,249 247,250 247,250 246,250 246,250 246,250 246,250 246,250 246,251 246,251 246,251 245,251 245,251 245,251 245,251 245,252 245,252 244,252 244,252 244,252 244,252 244,252 244,252 244,252 244,252 244,253 244,253 243,253 243,253 243,253 243,253 243,253 243,253 243,253 243,253 243,254 243,254 242,254 242,254 242,254 242,254 242,254 242,254 242,254 242,254 242,254 242,254 242,254 242,254 241,255 241,255 241,255 241,255 241,255 241,255 241,255 241,255 241,255 241,255 241,255 241,255 241,255 241,255 241,255 241,255 241,255 241,255 241,255 241,255 241,255 241,255 241,255 241,255 241,255 241,255 241,255 241,255 241,255 241,255 241,255 241,255 241,255 241,255 241,255 241,255 241,255 241,255 241,255 241,255 241,255 241,255 241,255 241,255 241,255 241,255 241,255 241,255 241,255 241,255 240,255 240,255 240,255 240,255 240,255 240,255 240,255 240,255 240,255 240,255 240,255 240,255 240,255 240,255 240,256 240,256 240,256 240,256 240,256 240,256 240,256 240,256 240,256 240,256 240,256 240,256 240,256 240,256 240,256 240,256 240,256 240,256 240,256 240,256 240,256 240,256 240,256 240,256 240,256 240,256 240,256 240,256 240,256 240,256 240,256 240,256 240,256 240,256 240,256 240,256 240,256 240,256 240,256 240,256 240,256 240,256 240,256 240,256 239,256 239,256 239,256 239,256 239,256 239,256 239,256 239,256 239,256 239,256 239,256 239,256 239,256 239,256 239,256 239,256 239,256 239,256 239,256 239,256 239,257 239,257 239,257 239,257 238,257 238,257 238,258 238,258 237,258 237,258 237,258 237,258 236,259 236,259 236,259 236,259 235,260 235,260 235,260 235,260 234,260 234,260 234,261 234,261 233,261 233,261 233,261 233,261 233,262 233,262 232,262 232,262 232,262 232,262 231,263 231,263 231,263 231,263 230,263 230,263 230,264 230,264 229,264 229,264 229,264 229,264 228,265 228,265 228,265 228,265 227,265 227,265 227,266 227,266 227,266 227,266 226,266 226,266 226,267 226,267 225,267 225,267 225,267 225,267 224,268 224,268 224,268 224,268 223,268 223,268 223,268 223,268 222,269 222,269 222,269 222,269 221,269 221,269 221,270 221,270 220,270 220,270 220,270 220,270 219,271 219,271 219,271 219,271 218,271 218,271 218,271 218,271 217,272 217,272 217,272 217,272 216,272 216,272 216,273 216,273 215,273 215,273 215,273 215,273 214,273 214,273 214,274 214,274 213,274 213,274 213,274 213,274 212,275 212,275 211,275 211,275 211,275 211,275 210,275 210,275 210,276 210,276 209,276 209,276 209,276 209,276 208,277 208,277 207,277 207,277 207,277 207,277 207,277 207,277 206,277 206,277 206,278 206,278 206,278 206,278 205,278 205,278 205,278 205,278 204,278 204,278 204,278 204,278 204,279 204,279 203,279 203,279 203,279 203,279 203,279 203,279 202,279 202,279 202,279 202,279 201,280 201,280 201,280 201,280 201,280 201,280 200,280 200,280 200,280 200,280 200,280 200,280 199,280 199,280 199,281 199,281 198,281 198,281 198,281 198,281 198,281 198,281 197,281 197,281 197,281 197,281 196,282 196,282 196,282 196,282 196,282 196,282 195,282 195,282 195,282 195,282 194,282 194,282 194,282 194,282 194,283 194,283 193,283 193,283 193,283 193,283 192,283 192,283 192,283 192,283 192,283 192,283 191,283 191,283 191,284 191,284 190,284 190,284 190,284 190,284 189,284 189,284 189,284 189,284 189,284 189,284 188,284 188,284 188,284 188,284 187,285 187,285 187,285 187,285 187,285 187,285 186,285 186,285 186,285 186,285 185,285 185,285 185,285 185,285 184,285 184,285 184,286 184,286 184,286 184,286 183,286 183,286 183,286 183,286 182,286 182,286 182,286 182,286 182,286 182,286 181,286 181,286 181,286 181,286 181,286 181,286 180,287 180,287 180,287 180,287 180,287 180,287 179,287 179,287 179,287 179,287 178,287 178,287 178,287 178,287 178,287 178,287 177,287 177,287 177,287 177,287 177,287 177,287 176,287 176,287 176,287 176,287 176,288 176,288 175,288 175,288 175,288 175,288 175,288 175,288 174,288 174,288 174,288 174,288 174,288 174,288 173,288 173,288 173,288 173,288 173,288 173,288 172,288 172,288 172,288 172,288 172,288 172,288 171,288 171,288 171,288 171,288 171,289 171,289 170,289 170,289 170,289 170,289 170,289 170,289 169,289 169,289 169,289 169,289 169,289 169,289 168,289 168,289 168,289 168,289 168,289 168,289 167,289 167,289 167,289 167,289 167,289 167,289 166,289 166,289 166,289 166,289 165,289 165,289 165,289 165,289 165,289 165,289 164,289 164,289 164,290 164,290 164,290 164,290 163,290 163,290 163,290 163,290 163,290 163,290 162,290 162,290 162,290 162,290 162,290 162,290 161,290 161,290 161,290 161,290 160,290 160,290 160,290 160,290 160,290 160,290 160,290 160,290 160,290 160,290 159,290 159,290 159,290 159,290 159,290 159,290 159,290 159,290 159,290 159,290 159,290 159,290 159,290 159,290 159,290 159,290 159,290 159,290 158,290 158,290 158,290 158,290 158,290 158,290 158,290 158,290 158,290 158,290 158,290 158,290 158,290 158,290 158,290 158,290 157,290 157,290 157,290 157,290 157,290 157,290 157,290 157,290 157,290 157,290 157,290 157,290 157,290 157,290 156,290 156,290 156,290 156,290 156,290 156,290 156,290 156,290 156,290 156,290 156,290 156,290 156,290 156,290 155,290 155,290 155,290 155,290 155,290 155,290 155,290 155,290 155,290 155,290 155,290 155,290 155,290 155,290 155,290 155,290 154,290 154,290 154,290 154,290 154,290 154,290 154,290 154,290 154,290 154,290 154,290 154,290 154,290 154,290 154,290 154,290 153,290 153,290 153,290 153,290 153,290 153,290 153,290 153,290 153,291 153,291 153,291 153,291 153,291 153,291 153,291 153,291 153,291 153,291 152,291 152,291 152,291 152,291 152,291 152,291 152,291 152,291 152,291 152,291 152,291 152,291 139,291 139,291 123,289 123,289 123,289 123,289 122,289 122,289 121,289 121,289 121,289 121,289 120,289 120,289 119,288 119,288 119,288 119,288 118,288 118,288 117,288 117,288 117,288 117,288 116,288 116,288 115,288 115,288 115,287 115,287 114,287 114,287 113,287 113,287 113,287 113,287 112,287 112,287 112,287 112,287 111,287 111,287 110,286 110,286 110,286 110,286 109,286 109,286 108,286 108,286 108,286 108,286 107,286 107,286 107,285 107,285 106,285 106,285 105,285 105,285 105,285 105,285 104,285 104,285 103,285 103,285 103,284 103,284 102,284 102,284 102,284 102,284 101,284 101,284 100,284 100,284 100,283 100,283 99,283 99,283 99,283 99,283 98,283 98,283 97,283 97,283 97,282 97,282 96,282 96,282 96,282 96,282 95,282 95,282 94,282 94,282 94,281 94,281 93,281 93,281 93,281 93,281 92,281 92,281 91,280 91,280 91,280 91,280 90,280 90,280 90,280 90,280 89,279 89,279 88,279 88,279 88,279 88,279 87,279 87,279 87,278 87,278 86,278 86,278 85,278 85,278 85,278 85,278 84,277 84,277 84,277 84,277 83,277 83,277 82,276 82,276 82,276 82,276 81,276 81,276 81,276 81,276 80,275 80,275 80,275 80,275 79,275 79,275 79,275 79,275 78,274 78,274 78,274 78,274 77,274 77,274 76,273 76,273 76,273 76,273 75,273 75,273 75,273 75,273 74,272 74,272 74,272 74,272 73,272 73,272 73,271 73,271 72,271 72,271 72,271 72,271 71,271 71,271 71,270 71,270 70,270 70,270 70,270 70,270 69,269 69,269 69,269 69,269 68,269 68,269 68,268 68,268 67,268 67,268 67,268 67,268 66,267 66,267 66,267 66,267 66,267 66,267 65,267 65,267 65,266 65,266 64,266 64,266 64,266 64,266 63,265 63,265 63,265 63,265 62,265 62,265 62,264 62,264 61,264 61,264 61,264 61,264 60,263 60,263 60,263 60,263 59,263 59,263 59,262 59,262 59,262 59,262 58,262 58,262 58,261 58,261 57,261 57,261 57,261 57,261 56,260 56,260 56,260 56,260 55,259 55,259 55,259 55,259 54,259 54,259 54,258 54,258 54,258 54,258 53,258 53,258 53,257 53,257 52,257 52,257 52,257 52,257 52,257 52,257 52,257 52,257 52,257 52,257 52,257 52,257 52,257 52,257 52,257 52,257 52,257 52,257 52,257 52,257 52,257 52,257 52,257 52,257 52,257 52,257 52,256 52,256 52,256 52,256 52,256 52,256 52,256 52,256 52,256 52,256 51,256 51,256 51,256 51,256 51,256 51,256 51,256 51,256 51,256 51,256 51,256 51,256 51,256 51,256 51,256 51,256 51,256 51,256 51,256 51,256 51,256 51,256 51,256 51,256 51,256 51,256 51,256 51,256 51,256 51,256 51,256 51,256 51,256 51,256 51,256 51,256 51,256 51,256 51,256 51,256 51,256 51,256 51,256 51,256 51,256 51,256 51,256 51,256 51,256 51,256 51,256 51,256 51,255 51,255 51,255 51,255 50,255 50,255 50,255 50,255 50,255 50,255 50,255 50,255 50,255 50,255 50,255 50,255 50,255 50,255 50,255 50,255 50,255 50,255 50,255 50,255 50,255 50,255 50,255 50,255 50,255 50,255 50,255 50,255 50,255 50,255 50,255 50,255 50,255 50,255 50,255 50,255 50,255 50,255 50,255 50,255 50,255 50,255 49,255 49,255 49,254 49,254 49,254 49,254 49,254 49,254 49,254 49,254 49,254 49,254 48,254 48,254 48,253 48,253 48,253 48,253 48,253 48,253 48,253 48,253 47,253 47,253 47,253 47,253 47,252 47,252 47,252 47,252 46,252 46,252 46,252 46,252 46,252 46,252 46,251 46,251 46,251 46,251 45,251 45,251 45,251 45,251 45,250 45,250 45,250 45,250 44,250 44,250 44,250 44,250 44,250 44,250 44,249 44,249 44,249 44,249 43,249 43,249 43,249 43,249 43,248 43,248 43,248 43,248 42,248 42,248 42,248 42,248 42,247 42,247 42,247 42,247 41,247 41,247 41,247 41,247 41,246 41,246 41,246 41,246 41,246 41,246 40,246 40,246 40,246 40,246 40,245 40,245 40,245 40,245 39,245 39,245 39,245 39,245 39,244 39,244 39,244 39,244 39,244 39,244 38,244 38,244 38,244 38,244 38,243 38,243 38,243 38,243 38,243 38,243 38,243 38,243 37,243 37,243 37,243 37,243 37,242 37,242 37,242 37,242 37,242 37,242 36,242 36,242 36,241 36,241 36,241 36,241 35,241 35,241 35,240 35,240 35,240 35,240 34,239 34,239 34,239 34,239 33,238 33,238 33,238 33,238 33,237 33,237 32,237 32,237 32,236 32,236 31,236 31,236 31,235 31,235 31,235 31,235 30,234 30,234 30,234 30,234 30,233 30,233 29,233 29,233 29,232 29,232 28,232 28,232 28,231 28,231 28,230 28,230 27,230 27,230 27,229 27,229 26,229 26,229 26,228 26,228 26,228 26,228 25,227 25,227 25,226 25,226 24,226 24,226 24,225 24,225 24,225 24,225 23,224 23,224 23,223 23,223 22,223 22,223 22,222 22,222 22,222 22,222 21,221 21,221 21,221 21,221 21,220 21,220 20,219 20,219 20,219 20,219 20,218 20,218 19,218 19,218 19,217 19,217 19,217 19,216 18,216 18,216 18,215 18,215 18,215 18,215 17,214 17,214 17,214 17,214 17,213 17,213 17,213 17,213 16,212 16,212 16,212 16,212 16,211 16,211 15,211 15,211 15,210 15,210 15,210 15,210 15,209 15,209 15,209 15,209 14,208 14,208 14,207 14,207 13,206 13,206 12,204 12,204 12,203 12,203 11,201 11,201 11,200 11,200 10,199 10,199 10,197 10,197 9,196 9,196 9,195 9,195 8,193 8,193 8,192 8,192 7,191 7,191 7,190 7,190 7,189 7,189 6,187 6,187 6,186 6,186 5,185 5,185 5,184 5,184 5,183 5,183 5,182 5,182 4,180 4,180 4,179 4,179 4,178 4,178 4,177 4,177 3,176 3,176 3,175 3,175 3,174 3,174 3,173 3,173 3,172 3,172 2,171 2,171 2,171 2,171 2,170 2,170 2,169 2,169 2,168 2,168 2,167 2,167 2,166 2,166 1,166 1,166 1,165 1,165 1,164 1,164 1,163 1,163 1,163 1,163 1,162 1,162 1,161 1,161 1,161 1,161 1,160 1,160 1,160 1,160 1,159 1,159 1,158 1,158 1,158 1,158 1,157 1,157 1,157 1,157 1,157 1,157 0,156 0,156 0,156 0,156 0,155 0,155 0,155 0,155 0,155 0,155 0,154 0,154 0,154 0,154 0,154 0,154 0,154 0,154 0,154 0,154 0,153 0,153 0,138 0,138 0,138 0,138 0,138 0,138 0,138 0,138 0,138 0,138 0,138 0,138 0,138 0,138 0,138 0,138 0,138 0,138 0,137 0,137 0,137 0,137 0,137 0,137 0,137 0,137 0,137 0,137 0,136 0,136 0,136 0,136 0,136 0,136 0,136 0,136 0,135 0,135 0,135 0,135 1,135 1,135 1,135 1,135 1,134 1,134 1,134 1,134 1,134 1,134 1,133 1,133 1,133 1,133 1,133 1,133 1,133 1,133 1,132 1,132 1,132 1,132 1,132 1,132 1,131 1,131 1,131 1,131 1,131 1,131 1,130 1,130 1,130 1,130 1,130 1,130 1,129 1,129 1,129 1,129 1,129 1,129 1,128 1,128 1,128 1,128 1,128 1,128 1,127 1,127 1,127 1,127 1,127 1,127 1,127 1,127 1,126 1,126 1,126 1,126 1,126 1,126 1,126 1,126 1,125 1,125 1,125 1,125 1,125 1,125 2,125 2,125 2,124 2,124 2,124 2,124 2,124 2,124 2,124 2,124 2,124 2,124 2,123 2,123 2,123 2,123 2,123 2,123 2,123 2,123 2,122 2,122 2,120 2,120 2,119 2,119 3,118 3,118 3,117 3,117 3,116 3,116 3,114 3,114 4,113 4,113 4,112 4,112 4,111 4,111 5,109 5,109 5,108 5,108 5,107 5,107 6,106 6,106 6,104 6,104 6,103 6,103 7,102 7,102 7,101 7,101 7,100 7,100 8,98 8,98 8,97 8,97 9,96 9,96 9,95 9,95 10,94 10,94 10,92 10,92 10,91 10,91 11,90 11,90 11,89 11,89 12,88 12,88 12,86 12,86 13,85 13,85 14,84 14,84 14,83 14,83 15,82 15,82 15,81 15,81 16,80 16,80 16,78 16,78 17,77 17,77 17,76 17,76 18,75 18,75 19,74 19,74 19,73 19,73 20,72 20,72 21,71 21,71 21,70 21,70 22,68 22,68 23,67 23,67 23,66 23,66 24,65 24,65 25,64 25,64 25,63 25,63 26,62 26,62 27,61 27,61 28,60 28,60 28,59 28,59 29,58 29,58 30,57 30,57 31,56 31,56 31,55 31,55 32,54 32,54 33,53 33,53 34,52 34,52 35,51 35,51 35,50 35,50 38,47 38,47 39,47 39,47 39,47 39,47 39,47 39,47 39,46 39,46 39,46 39,46 39,46 39,46 39,46 39,46 39,46 39,46 40,46 40,46 40,46 40,46 40,45 40,45 40,45 40,45 40,45 40,45 40,45 40,45 41,45 41,45 41,44 41,44 41,44 41,44 41,44 41,44 41,44 41,44 42,43 42,43 42,43 42,43 42,43 42,43 42,43 42,43 43,43 43,43 43,42 43,42 43,42 43,42 43,42 43,42 44,42 44,42 44,41 44,41 44,41 44,41 44,41 44,41 45,41 45,41 45,40 45,40 45,40 45,40 45,40 45,40 46,40 46,40 46,39 46,39 46,39 46,39 47,39 47,39 47,39 47,39 47,38 47,38 47,38 47,38 48,38 48,38 48,38 48,38 48,37 48,37 48,37 48,37 49,37 49,37 49,37 49,37 49,37 49,37 49,36 49,36 49,36 49,36 50,36 50,36 50,36 50,36 50,36 50,36 50,35 50,35 50,35 50,35 51,35 51,35 51,35 51,35 51,35 51,35 51,35 51,35 51,35 51,35 51,34 51,34 52,34 52,34 52,34 52,34 52,34 52,34 53,33 53,33 53,33 53,33 54,33 54,33 54,32 54,32 55,32 55,32 55,32 55,32 56,31 56,31 56,31 56,31 57,30 57,30 57,30 57,30 57,30 57,30 58,29 58,29 58,29 58,29 59,29 59,29 59,28 59,28 60,28 60,28 60,28 60,28 60,27 60,27 61,27 61,27 61,27 61,27 62,26 62,26 62,26 62,26 63,26 63,26 63,26 63,26 63,25 63,25 64,25 64,25 64,25 64,25 65,24 65,24 65,24 65,24 66,24 66,24 66,23 66,23 66,23 66,23 67,23 67,23 67,23 67,23 68,22 68,22 68,22 68,22 69,22 69,22 69,21 69,21 70,21 70,21 70,21 70,21 71,21 71,21 71,20 71,20 72,20 72,20 72,20 72,20 73,19 73,19 73,19 73,19 74,19 74,19 74,19 74,19 75,18 75,18 75,18 75,18 76,18 76,18 76,17 76,17 77,17 77,17 77,17 77,17 78,16 78,16 79,16 79,16 79,16 79,16 80,15 80,15 81,15 81,15 81,15 81,15 82,15 82,15 83,14 83,14 83,14 83,14 84,14 84,14 85,13 85,13 85,13 85,13 86,13 86,13 87,12 87,12 88,12 88,12 88,12 88,12 89,11 89,11 90,11 90,11 91,11 91,11 91,10 91,10 92,10 92,10 93,10 93,10 93,10 93,10 94,9 94,9 95,9 95,9 96,9 96,9 96,9 96,8 97,8 97,8 98,8 98,8 98,8 98,8 99,7 99,7 100,7 100,7 101,7 101,7 101,7 101,7 102,7 102,7 103,6 103,6 104,6 104,6 104,6 104,6 105,6 105,6 106,5 106,5 107,5 107,5 107,5 107,5 108,5 108,5 109,5 109,5 110,4 110,4 110,4 110,4 111,4 111,4 112,4 112,4 112,4 112,4 113,4 113,4 114,3 114,3 115,3 115,3 115,3 115,3 116,3 116,3 117,3 117,3 118,3 118,3 119,2 119,2 119,2 119,2 120,2 120,2 121,2 121,2 122,2 122,2 122,2 122,2 123,2 123,2 124,2 124,2 125,1 125,1 125,1 125,1 126,1 126,1 127,1 127,1 128,1 128,1 129,1 129,1 129,1 129,1 130,1 130,1 131,1 131,1 131,1 131,1 131,1 131,1 131,1 131,1 131,1 131,1 131,1 131,1 132,1 132,1 132,1 132,1 132,1 132,1 132,1 132,1 132,1 132,1 132,1 132,1 132,1 132,1 132,1 132,1 133,1 133,1 133,1 133,1 133,1 133,1 133,1 133,1 133,1 133,1 133,1 133,1 133,1 133,1 134,1 134,1 134,1 134,1 134,1 134,1 134,1 134,1 134,1 134,1 134,1 134,1 134,1 134,1 135,1 135,0 135,0 135,0 135,0 135,0 135,0 135,0 135,0 135,0 135,0 135,0 135,0 135,0 136,0 136,0 136,0 136,0 136,0 136,0 136,0 136,0 136,0 136,0 136,0 136,0 136,0 136,0 137,0 137,0 137,0 137,0 137,0 137,0 137,0 137,0 137,0 137,0 137,0 137,0 137,0 137,0 137,0 137,0 138,0 138,0 138,0 138,0 138,0 138,0 138,0 138,0 138,0 138,0 138,0 138,0 138,0 138,0 138,0 138,0 138,0 138,0 139,0 139,0 139,0 139,0 139,0 139,0 139,0 139,0 139,0 139,0 "/>
   <path fill="white" d="M180 64c-1,-4 -5,-8 -10,-7 -7,2 -3,8 -4,12 -1,2 -5,7 -7,10 -10,15 -5,13 -21,13 -2,-7 -27,-40 -27,-44 0,-5 1,-6 -2,-9 -6,-5 -14,0 -11,7 2,5 4,3 7,5 3,2 8,11 10,14 6,9 13,19 18,28 -5,4 -6,3 -9,9 0,1 0,2 0,2 -1,0 0,3 -1,1 0,0 0,1 0,1 -21,0 -37,-2 -51,8 -12,9 -18,21 -18,42 0,36 -7,72 33,86 0,7 0,8 4,12 5,-1 6,-6 10,-10l90 0c2,4 6,10 11,10 1,-3 1,-8 1,-12 15,-3 26,-15 31,-28 4,-12 2,-44 2,-58 0,-62 -65,-49 -68,-50 -2,-2 -3,-5 -5,-7 -2,-2 -4,-3 -6,-5l14 -21c3,-3 10,-2 9,-9zm30 80c4,0 8,4 8,9 0,5 -4,8 -8,8 -5,0 -9,-3 -9,-8 0,-5 4,-9 9,-9zm0 40c4,0 8,4 8,8 0,5 -4,9 -8,9 -5,0 -9,-4 -9,-9 0,-4 4,-8 9,-8zm-127 -50l101 0c4,0 8,3 8,7l0 68c0,4 -4,8 -8,8l-101 0c-4,0 -7,-4 -7,-8l0 -68c0,-4 3,-7 7,-7z"/>
  </g>
 </g>
</svg>
