<?xml version="1.0" encoding="UTF-8"?>
<!DOCTYPE svg PUBLIC "-//W3C//DTD SVG 1.1//EN" "http://www.w3.org/Graphics/SVG/1.1/DTD/svg11.dtd">
<!-- Creator: CorelDRAW X7 -->
<svg xmlns="http://www.w3.org/2000/svg" xml:space="preserve" width="7.3454mm" height="7.3525mm" version="1.1" shape-rendering="geometricPrecision" text-rendering="geometricPrecision" image-rendering="optimizeQuality" fill-rule="evenodd" clip-rule="evenodd"
viewBox="0 0 291 291"
 xmlns:xlink="http://www.w3.org/1999/xlink">
 <defs>
   <linearGradient id="id0" gradientUnits="userSpaceOnUse" x1="78.2474" y1="24.4617" x2="212.593" y2="266.656">
    <stop offset="0" stop-opacity="1" stop-color="#00C4B5"/>
    <stop offset="1" stop-opacity="1" stop-color="#004D40"/>
   </linearGradient>
 </defs>
 <g id="Layer_x0020_1">
  <metadata id="CorelCorpID_0Corel-Layer"/>
  <path fill="url(#id0)" d="M139 291l0 0 -16 -2c-14,-2 -26,-6 -39,-12 -12,-5 -22,-12 -32,-20 -1,0 -1,-1 -2,-2 -3,-2 -10,-9 -13,-13 -8,-7 -18,-24 -23,-33 -14,-31 -13,-52 -14,-55l0 -15c0,-2 1,-13 2,-16 4,-26 16,-53 33,-72l4 -4c1,-2 10,-11 13,-13 11,-8 16,-13 31,-20 6,-3 12,-5 18,-7 10,-3 20,-5 30,-6l1 0c2,-1 4,-1 7,-1 0,0 0,0 0,0l14 0c0,0 1,0 2,0 4,1 8,1 12,2 1,0 1,0 2,0 14,2 27,6 39,12 11,5 19,10 27,17l14 12c3,3 6,6 8,9 2,2 3,3 4,5 6,8 12,17 17,27 10,23 12,40 13,49l0 5c0,5 0,11 0,16l0 4c-1,4 -1,8 -1,10 -4,22 -13,44 -25,62 -3,3 -5,6 -8,10 -3,3 -12,13 -15,15 -1,1 -2,1 -2,2 -11,8 -19,14 -32,20 -8,4 -17,7 -26,9 -7,2 -14,4 -22,4 -2,1 -6,1 -8,1l-13 0 0 0z"/>
  <g id="_461534744">
   <path fill="#FEFEFE" d="M128 78c-8,2 -21,3 -23,17 0,1 0,7 -6,7 -10,0 -4,-27 19,-31 7,-2 14,-1 10,7zm-44 27c1,5 3,10 9,18 7,10 10,11 15,18l17 16c19,19 23,18 39,1 20,-20 43,-36 43,-67 0,-14 -10,-25 -22,-29 -17,-6 -27,-3 -40,6 -2,-2 -2,-2 -5,-3 -31,-17 -63,4 -56,40z"/>
   <path fill="#FEFEFE" d="M71 168l0 0zm0 0c-6,-2 -9,-10 -14,-15 -7,-9 -11,-11 -1,-16 -1,-4 -2,-23 -4,-30 -1,-3 -3,-4 -7,-4l-2 10c-1,9 -3,26 0,34 1,3 2,5 3,8l12 25c5,7 21,16 29,21 4,2 9,5 12,8 7,7 5,12 5,23l36 0c0,-18 4,-25 -3,-38 -5,-10 -13,-19 -23,-24 -4,-2 -13,-3 -18,-4 -7,-1 -9,-1 -15,-8 -7,-9 -14,-19 -26,-19l-3 3c1,3 6,10 9,13 1,2 3,4 4,7 2,2 4,3 6,6z"/>
   <path fill="#FEFEFE" d="M220 168l0 0zm0 0l10 -13c2,-3 8,-10 9,-14l-3 -2c-12,0 -21,11 -26,18 -11,15 -17,6 -33,13 -14,7 -29,27 -27,41 1,13 1,6 1,21l35 0c0,-12 -1,-16 6,-23 0,0 0,0 0,0 1,-2 2,-2 4,-3 7,-5 30,-18 35,-23l13 -27c7,-15 7,-23 4,-43l-2 -10c-7,0 -8,5 -9,13 0,4 -2,18 -3,21 10,5 6,6 -1,16 -4,6 -7,13 -13,15z"/>
  </g>
 </g>
</svg>
