<?xml version="1.0" encoding="UTF-8"?>
<!DOCTYPE svg PUBLIC "-//W3C//DTD SVG 1.1//EN" "http://www.w3.org/Graphics/SVG/1.1/DTD/svg11.dtd">
<!-- Creator: CorelDRAW X7 -->
<svg xmlns="http://www.w3.org/2000/svg" xml:space="preserve" width="3.9778mm" height="3.9764mm" version="1.1" shape-rendering="geometricPrecision" text-rendering="geometricPrecision" image-rendering="optimizeQuality" fill-rule="evenodd" clip-rule="evenodd"
viewBox="0 0 21 21"
 xmlns:xlink="http://www.w3.org/1999/xlink">
 <g id="Layer_x0020_1">
  <metadata id="CorelCorpID_0Corel-Layer"/>
  <g id="_462629048">
   <path fill="#3ABEFE" d="M1 15l5 5 12 -13 -3 -3 -12 12 0 -1 12 -12 -1 -1c0,0 -3,3 -3,3l-9 10c0,0 -1,0 -1,0z"/>
   <path fill="#3ABEFE" d="M15 2l4 4c0,0 1,-1 2,-1 0,-1 0,-2 -1,-3l-2 -1c-1,-1 -2,-1 -2,0 -1,0 -1,0 -1,1z"/>
   <path fill="#3ABEFE" d="M0 21c0,0 2,0 3,-1l2 0 -4 -4c0,0 0,1 0,1l-1 2c0,1 0,1 0,1 0,0 0,1 0,1z"/>
  </g>
 </g>
</svg>
