<?xml version="1.0" encoding="UTF-8"?>
<!DOCTYPE svg PUBLIC "-//W3C//DTD SVG 1.1//EN" "http://www.w3.org/Graphics/SVG/1.1/DTD/svg11.dtd">
<!-- Creator: CorelDRAW X7 -->
<svg xmlns="http://www.w3.org/2000/svg" xml:space="preserve" width="7.3436mm" height="7.3465mm" version="1.1" shape-rendering="geometricPrecision" text-rendering="geometricPrecision" image-rendering="optimizeQuality" fill-rule="evenodd" clip-rule="evenodd"
viewBox="0 0 291 291"
 xmlns:xlink="http://www.w3.org/1999/xlink">
 <defs>
   <linearGradient id="id0" gradientUnits="userSpaceOnUse" x1="206.479" y1="222.004" x2="84.15" y2="68.7352">
    <stop offset="0" stop-opacity="1" stop-color="red"/>
    <stop offset="1" stop-opacity="1" stop-color="#FE6A00"/>
   </linearGradient>
 </defs>
 <g id="Layer_x0020_1">
  <metadata id="CorelCorpID_0Corel-Layer"/>
  <path fill="url(#id0)" d="M208 277c-29,14 -54,16 -85,12 -14,-2 -27,-6 -39,-12 -13,-5 -22,-12 -32,-20 -1,-1 -1,-1 -2,-2 -3,-2 -10,-10 -13,-13 -8,-7 -18,-24 -23,-33 -24,-52 -17,-115 21,-159 5,-5 11,-11 17,-16 11,-8 16,-13 31,-20 40,-19 85,-19 125,0 10,5 19,10 27,17l14 12c3,3 5,6 8,9 1,2 3,3 4,5 6,8 12,17 16,27 33,72 4,158 -69,193z"/>
  <g id="_461525312">
   <path fill="#FEFEFE" d="M113 97c0,3 0,6 0,9 0,3 0,6 3,6 4,0 2,-8 3,-15 9,3 8,19 -3,19 -12,0 -13,-17 -3,-19zm65 0c10,3 8,19 -3,19 -12,0 -13,-16 -3,-19 0,3 0,6 0,9 0,3 0,6 3,6 5,0 2,-8 3,-15zm-65 -6c-5,1 -30,-1 -32,1 -2,2 -1,12 -1,15 0,5 -1,11 0,16 2,1 101,0 114,0 5,0 12,1 17,0 0,-4 0,-11 0,-16 0,-3 1,-13 -1,-15 -2,-1 -27,-1 -32,-1 -1,-2 0,-8 0,-11 0,-3 1,-8 -3,-8 -6,0 -2,12 -3,19l-53 0c-2,-7 2,-19 -3,-19 -5,0 -2,10 -3,19z"/>
   <path fill="#FEFEFE" d="M86 134l119 0 0 79 -119 0 0 -79zm-6 -6c0,4 0,88 0,88 0,4 4,3 7,3l117 0c4,0 7,0 7,-3 0,-4 0,-85 0,-88l-131 0z"/>
   <path fill="#FEFEFE" fill-rule="nonzero" d="M146 198c-3,-4 -6,-9 -10,-13 -6,-6 -11,-10 -12,-18 -3,-11 9,-15 18,-10 3,2 4,2 8,0 2,-2 5,-2 8,-2 2,0 4,1 6,2 3,2 4,6 3,10 -1,6 -6,13 -10,17 -4,4 -8,9 -11,14z"/>
  </g>
 </g>
</svg>
