<?xml version="1.0" encoding="UTF-8"?>
<!DOCTYPE svg PUBLIC "-//W3C//DTD SVG 1.1//EN" "http://www.w3.org/Graphics/SVG/1.1/DTD/svg11.dtd">
<!-- Creator: CorelDRAW X7 -->
<svg xmlns="http://www.w3.org/2000/svg" xml:space="preserve" width="7.3378mm" height="7.3525mm" version="1.1" shape-rendering="geometricPrecision" text-rendering="geometricPrecision" image-rendering="optimizeQuality" fill-rule="evenodd" clip-rule="evenodd"
viewBox="0 0 71 71"
 xmlns:xlink="http://www.w3.org/1999/xlink">
 <defs>
   <linearGradient id="id0" gradientUnits="userSpaceOnUse" x1="19.6497" y1="12.7547" x2="51.071" y2="58.1066">
    <stop offset="0" stop-opacity="1" stop-color="#6F00CF"/>
    <stop offset="1" stop-opacity="1" stop-color="#27004D"/>
   </linearGradient>
 </defs>
 <g id="Layer_x0020_1">
  <metadata id="CorelCorpID_0Corel-Layer"/>
  <path fill="url(#id0)" d="M71 32l0 6c0,1 0,3 -1,3 0,5 -3,11 -6,15 0,1 -1,2 -2,2 0,1 -2,4 -3,4 0,0 -1,0 -1,1 -2,2 -4,3 -7,4 -2,1 -4,2 -7,3 -1,0 -3,1 -5,1 -1,0 -2,0 -2,0l-3 0 -4 -1c-3,0 -6,-1 -10,-2 -3,-2 -5,-3 -7,-5 0,-1 -1,-1 -1,-1 -1,0 -2,-2 -3,-3 -2,-2 -4,-6 -6,-8 -3,-8 -3,-13 -3,-14l0 -3c0,-1 0,-3 0,-4 1,-6 4,-13 9,-18l0 -1c1,0 3,-2 4,-3 2,-2 4,-3 7,-5 4,-1 8,-2 12,-3 0,0 2,0 2,0l3 0c0,0 3,0 4,0 3,1 7,2 10,3 2,2 4,3 6,4l4 4c0,0 1,1 2,2 0,0 0,0 1,1 1,2 2,4 4,6 2,6 3,10 3,12z"/>
  <path fill="#FEFEFE" d="M9 37c1,9 11,14 19,9 2,-2 1,-2 3,-3 1,0 3,0 4,0 6,0 5,0 8,3 2,1 6,2 9,2 13,-2 14,-20 2,-24 -3,-1 -6,-1 -9,0 -3,1 -16,1 -19,0 -3,-1 -7,-1 -9,0 -5,2 -9,6 -8,13zm42 -8c1,0 2,1 2,2 0,1 -1,2 -2,2 -1,0 -2,-1 -2,-2 0,-1 1,-2 2,-2zm7 7c0,1 -1,2 -2,2 -1,0 -2,-1 -2,-2 0,-1 1,-2 2,-2 1,0 2,1 2,2zm-7 3c1,0 2,1 2,2 0,1 -1,2 -2,2 -1,0 -2,-1 -2,-2 0,-1 1,-2 2,-2zm-3 -3c0,1 -1,2 -2,2 -1,0 -2,-1 -2,-2 0,-1 1,-2 2,-2 1,0 2,1 2,2zm-21 -2l0 2c0,1 -1,1 -1,1l-4 0 0 4c0,0 0,0 0,0l-2 0c-1,0 -1,0 -1,0l0 -4 -3 0c-1,0 -1,0 -1,-1l0 -2c0,0 0,0 1,0l3 0 0 -4c0,0 0,-1 1,-1l2 0c0,0 0,1 0,1l0 4 4 0c0,0 1,0 1,0z"/>
 </g>
</svg>
