<?xml version="1.0" encoding="UTF-8"?>
<!DOCTYPE svg PUBLIC "-//W3C//DTD SVG 1.1//EN" "http://www.w3.org/Graphics/SVG/1.1/DTD/svg11.dtd">
<!-- Creator: CorelDRAW X7 -->
<svg xmlns="http://www.w3.org/2000/svg" xml:space="preserve" width="7.3378mm" height="7.3525mm" version="1.1" shape-rendering="geometricPrecision" text-rendering="geometricPrecision" image-rendering="optimizeQuality" fill-rule="evenodd" clip-rule="evenodd"
viewBox="0 0 71 71"
 xmlns:xlink="http://www.w3.org/1999/xlink">
 <defs>
   <linearGradient id="id0" gradientUnits="userSpaceOnUse" x1="25.7572" y1="11.497" x2="44.9635" y2="59.3644">
    <stop offset="0" stop-opacity="1" stop-color="#FB9816"/>
    <stop offset="1" stop-opacity="1" stop-color="#AD0C80"/>
   </linearGradient>
 </defs>
 <g id="Layer_x0020_1">
  <metadata id="CorelCorpID_0Corel-Layer"/>
  <path fill="url(#id0)" d="M71 32l0 6c0,1 0,3 -1,3 0,5 -3,11 -6,15 0,1 -1,2 -2,2 0,1 -2,4 -3,4 0,0 -1,0 -1,1 -2,2 -4,3 -7,4 -2,1 -4,2 -7,3 -1,0 -3,1 -5,1 -1,0 -2,0 -2,0l-3 0 -4 -1c-3,0 -6,-1 -10,-2 -3,-2 -5,-3 -7,-5 0,-1 -1,-1 -1,-1 -1,0 -2,-2 -3,-3 -2,-2 -4,-6 -6,-8 -3,-8 -3,-13 -3,-14l0 -3c0,-1 0,-3 0,-4 1,-6 4,-13 9,-18l0 -1c1,0 3,-2 4,-3 2,-2 4,-3 7,-5 4,-1 8,-2 12,-3 0,0 2,0 2,0l3 0c0,0 3,0 4,0 3,1 7,2 10,3 2,2 4,3 6,4l4 4c0,0 1,1 2,2 0,0 0,0 1,1 1,2 2,4 4,6 2,6 3,10 3,12z"/>
  <g id="_465725296">
   <path fill="#FEFEFE" d="M30 31c0,0 0,0 0,1 -1,1 0,2 1,3 0,1 0,0 0,2 1,1 1,1 1,1 0,0 -1,1 -1,1 -1,1 -3,1 -4,2 -2,1 -2,1 -3,2 0,1 -1,3 -1,5 0,0 0,1 1,1 2,1 9,1 11,1 3,0 9,0 12,-1 1,-1 1,-1 1,-3 -1,-1 -1,-2 -2,-3 -1,-2 -2,-2 -5,-3 0,-1 -1,-1 -1,-1 -1,0 -1,-1 -2,-1 1,0 1,0 1,-1 1,-2 0,-1 1,-2 1,-1 1,-2 1,-3 0,-1 0,-1 0,-1 0,-2 0,-4 -1,-5 -1,-2 -3,-2 -5,-2 -2,0 -3,0 -4,2 -1,1 -1,3 -1,5z"/>
   <path fill="#FEFEFE" d="M22 27c-1,0 -1,0 -1,1 0,0 0,1 0,1 0,1 1,2 1,2 1,1 1,1 1,2 0,0 0,0 1,1 -1,0 -2,1 -3,1 -1,0 -3,1 -4,2 -1,1 -2,3 -2,5 0,1 0,1 2,1 1,1 4,1 5,1 1,-1 1,-2 3,-3 0,0 0,-1 1,-1 0,0 1,-1 2,-1 1,0 2,-1 3,-1 0,-2 -4,-4 -2,-7 0,-1 0,0 0,-2 0,-2 0,-3 1,-4 1,0 1,-1 1,-1 0,-1 -1,-2 -2,-3 -2,-1 -6,0 -7,2 -1,1 0,3 0,4z"/>
   <path fill="#FEFEFE" d="M40 38c1,0 2,1 3,1 1,1 2,1 3,2 1,0 1,0 1,1 1,1 1,1 1,2 1,0 5,0 6,-1 1,0 2,0 2,-1 -1,-2 -1,-4 -2,-5 -1,0 -2,-1 -2,-1 -1,-1 -4,-2 -5,-2 1,-1 1,-1 1,-2 0,0 0,0 0,-1 0,0 1,0 1,0 0,-1 0,-1 1,-2 0,0 0,-1 0,-1 0,-1 -1,-1 -1,-1 0,-1 0,-3 0,-4 -2,-2 -5,-3 -7,-2 -1,1 -2,2 -2,3 0,0 1,1 2,3 0,1 0,2 0,3 0,1 1,2 0,5 -1,0 -2,2 -2,3z"/>
  </g>
 </g>
</svg>
