<?xml version="1.0" encoding="UTF-8"?>
<!DOCTYPE svg PUBLIC "-//W3C//DTD SVG 1.1//EN" "http://www.w3.org/Graphics/SVG/1.1/DTD/svg11.dtd">
<!-- Creator: CorelDRAW X7 -->
<svg xmlns="http://www.w3.org/2000/svg" xml:space="preserve" width="7.3457mm" height="7.3521mm" version="1.1" shape-rendering="geometricPrecision" text-rendering="geometricPrecision" image-rendering="optimizeQuality" fill-rule="evenodd" clip-rule="evenodd"
viewBox="0 0 291 291"
 xmlns:xlink="http://www.w3.org/1999/xlink">
 <defs>
   <linearGradient id="id0" gradientUnits="userSpaceOnUse" x1="73.5393" y1="33.9397" x2="217.198" y2="257.051">
    <stop offset="0" stop-opacity="1" stop-color="red"/>
    <stop offset="1" stop-opacity="1" stop-color="#670001"/>
   </linearGradient>
 </defs>
 <g id="Layer_x0020_1">
  <metadata id="CorelCorpID_0Corel-Layer"/>
  <path fill="url(#id0)" d="M208 277c-8,4 -17,7 -26,9 -7,2 -14,4 -22,4 -2,1 -6,1 -8,1l-13 0 -16 -2c-14,-2 -26,-6 -39,-12 -12,-5 -22,-12 -32,-20 -1,-1 -1,-1 -2,-2 -3,-2 -10,-9 -13,-13 -8,-7 -18,-24 -23,-33 -14,-31 -13,-52 -14,-55l0 -15c0,-2 1,-13 2,-16 4,-26 16,-53 33,-73l3 -3c2,-2 11,-11 14,-13 11,-8 16,-13 31,-20 40,-19 86,-19 125,0 10,5 19,10 27,17l14 12c3,3 5,6 8,9 1,2 3,3 4,5 6,8 12,17 16,27 33,72 4,158 -69,193z"/>
  <g id="_462337768">
   <rect fill="#FEFEFE" x="49" y="99" width="162.408" height="92.7892" rx="12" ry="12"/>
   <polygon fill="#FEFEFE" points="241,110 210,123 210,168 241,181 "/>
  </g>
  <g id="_462337240">
   <circle fill="#FEFEFE" cx="188" cy="122" r="15"/>
   <circle fill="red" cx="188" cy="122" r="12"/>
  </g>
 </g>
</svg>
