<?xml version="1.0" encoding="UTF-8"?>
<!DOCTYPE svg PUBLIC "-//W3C//DTD SVG 1.1//EN" "http://www.w3.org/Graphics/SVG/1.1/DTD/svg11.dtd">
<!-- Creator: CorelDRAW X7 -->
<svg xmlns="http://www.w3.org/2000/svg" xml:space="preserve" width="3.0995mm" height="3.0994mm" version="1.1" shape-rendering="geometricPrecision" text-rendering="geometricPrecision" image-rendering="optimizeQuality" fill-rule="evenodd" clip-rule="evenodd"
viewBox="0 0 53 53"
 xmlns:xlink="http://www.w3.org/1999/xlink">
 <g id="Layer_x0020_1">
  <metadata id="CorelCorpID_0Corel-Layer"/>
  <g id="_740219200">
   <path fill="#3ABEFE" d="M27 0c14,0 26,12 26,27 0,14 -12,26 -26,26 -15,0 -27,-12 -27,-26 0,-15 12,-27 27,-27zm0 4c12,0 23,10 23,23 0,12 -11,23 -23,23 -13,0 -23,-11 -23,-23 0,-13 10,-23 23,-23z"/>
   <g>
    <path fill="#3ABEFE" d="M11 28c0,3 0,5 2,7 0,1 1,2 1,3l1 1c0,1 0,1 1,1 0,0 0,0 0,0 0,0 0,1 1,1 2,2 6,3 9,3 3,0 5,0 7,-1 2,-1 3,-2 4,-3 0,0 0,0 1,0 0,0 0,-1 0,-1 2,-2 4,-6 4,-10 0,-2 0,-3 -1,-5 0,-2 -1,-3 -2,-4 0,-1 -2,-2 -3,-3 0,-1 -2,-2 -2,-2 0,0 -1,0 -1,1l0 3c0,1 2,2 2,3 3,4 3,9 1,12 -1,2 -2,3 -4,4 0,1 -1,1 -1,1 -3,1 -6,1 -9,0 -2,-1 -4,-3 -5,-5 -2,-3 -2,-6 -1,-9 1,-1 1,-1 1,-2 0,0 1,-2 2,-2 0,0 1,-1 1,-2l0 -3c0,-1 0,-1 -1,-1 0,0 -3,3 -4,4 -2,1 -2,3 -3,5 0,1 -1,3 -1,4z"/>
    <path fill="#3ABEFE" d="M24 11l0 11c0,2 3,3 4,2 0,-1 1,-1 1,-2l0 -11c0,-1 -1,-2 -3,-2 -1,0 -2,1 -2,2z"/>
   </g>
  </g>
 </g>
</svg>
