<?xml version="1.0" encoding="UTF-8"?>
<!DOCTYPE svg PUBLIC "-//W3C//DTD SVG 1.1//EN" "http://www.w3.org/Graphics/SVG/1.1/DTD/svg11.dtd">
<!-- Creator: CorelDRAW X7 -->
<svg xmlns="http://www.w3.org/2000/svg" xml:space="preserve" width="7.3378mm" height="7.3525mm" version="1.1" shape-rendering="geometricPrecision" text-rendering="geometricPrecision" image-rendering="optimizeQuality" fill-rule="evenodd" clip-rule="evenodd"
viewBox="0 0 71 71"
 xmlns:xlink="http://www.w3.org/1999/xlink">
 <defs>
   <linearGradient id="id0" gradientUnits="userSpaceOnUse" x1="18.442" y1="7.08382" x2="52.2786" y2="63.7775">
    <stop offset="0" stop-opacity="1" stop-color="#B5D208"/>
    <stop offset="1" stop-opacity="1" stop-color="#074B00"/>
   </linearGradient>
 </defs>
 <g id="Layer_x0020_1">
  <metadata id="CorelCorpID_0Corel-Layer"/>
  <path fill="url(#id0)" d="M71 32l0 6c0,1 0,3 -1,3 0,5 -3,11 -6,15 0,1 -1,2 -2,2 0,1 -2,4 -3,4 0,0 -1,0 -1,1 -2,2 -4,3 -7,4 -2,1 -4,2 -7,3 -1,0 -3,1 -5,1 -1,0 -2,0 -2,0l-3 0 -4 -1c-3,0 -6,-1 -10,-2 -3,-2 -5,-3 -7,-5 0,-1 -1,-1 -1,-1 -1,0 -2,-2 -3,-3 -2,-2 -4,-6 -6,-8 -3,-8 -3,-13 -3,-14l0 -3c0,-1 0,-3 0,-4 1,-6 4,-13 9,-18l0 -1c1,0 3,-2 4,-3 2,-2 4,-3 7,-5 4,-1 8,-2 12,-3 0,0 2,0 2,0l3 0c0,0 3,0 4,0 3,1 7,2 10,3 2,2 4,3 6,4l4 4c0,0 1,1 2,2 0,0 0,0 1,1 1,2 2,4 4,6 2,6 3,10 3,12z"/>
  <path fill="#FEFEFE" d="M23 23c3,-1 2,15 0,16 -2,-1 -3,-16 0,-16zm-1 21c1,-2 6,-2 8,-2 3,1 6,2 8,3 6,2 13,1 15,-4 1,-3 1,-20 0,-22 -3,-1 -6,6 -16,1 -6,-3 -9,-3 -16,0 0,-2 0,-5 -3,-3 -1,0 -1,4 -1,5l0 21 0 4c0,1 -1,8 2,8 2,0 2,-2 2,-4 0,-3 0,-6 1,-7z"/>
 </g>
</svg>
