<?xml version="1.0" encoding="UTF-8"?>
<!DOCTYPE svg PUBLIC "-//W3C//DTD SVG 1.1//EN" "http://www.w3.org/Graphics/SVG/1.1/DTD/svg11.dtd">
<!-- Creator: CorelDRAW X7 -->
<svg xmlns="http://www.w3.org/2000/svg" xml:space="preserve" width="7.3378mm" height="7.3525mm" version="1.1" shape-rendering="geometricPrecision" text-rendering="geometricPrecision" image-rendering="optimizeQuality" fill-rule="evenodd" clip-rule="evenodd"
viewBox="0 0 71 71"
 xmlns:xlink="http://www.w3.org/1999/xlink">
 <defs>
   <linearGradient id="id0" gradientUnits="userSpaceOnUse" x1="17.779" y1="14.9955" x2="52.9417" y2="55.8658">
    <stop offset="0" stop-opacity="1" stop-color="#C400E7"/>
    <stop offset="1" stop-opacity="1" stop-color="#17005A"/>
   </linearGradient>
 </defs>
 <g id="Layer_x0020_1">
  <metadata id="CorelCorpID_0Corel-Layer"/>
  <path fill="url(#id0)" d="M71 32l0 6c0,1 0,3 -1,3 0,5 -3,11 -6,15 0,1 -1,2 -2,2 0,1 -2,4 -3,4 0,0 -1,0 -1,1 -2,2 -4,3 -7,4 -2,1 -4,2 -7,3 -1,0 -3,1 -5,1 -1,0 -2,0 -2,0l-3 0 -4 -1c-3,0 -6,-1 -10,-2 -3,-2 -5,-3 -7,-5 0,-1 -1,-1 -1,-1 -1,0 -2,-2 -3,-3 -2,-2 -4,-6 -6,-8 -3,-8 -3,-13 -3,-14l0 -3c0,-1 0,-3 0,-4 1,-6 4,-13 9,-18l0 -1c1,0 3,-2 4,-3 2,-2 4,-3 7,-5 4,-1 8,-2 12,-3 0,0 2,0 2,0l3 0c0,0 3,0 4,0 3,1 7,2 10,3 2,2 4,3 6,4l4 4c0,0 1,1 2,2 0,0 0,0 1,1 1,2 2,4 4,6 2,6 3,10 3,12z"/>
  <g id="_464509560">
   <path fill="#FEFEFE" d="M14 49l15 0c1,0 0,1 1,1 1,1 1,1 2,1 1,0 2,0 3,0 2,0 5,0 5,-1 1,0 1,-1 2,-1 4,0 10,0 14,0 0,1 -1,3 -3,3 -1,1 -3,1 -5,1l-25 0c-2,0 -4,0 -6,-1 -1,0 -1,-1 -2,-2l-1 -1zm17 0l9 0c0,1 -1,1 -2,1l-5 0c-2,0 -2,0 -2,-1zm-15 -1c0,-6 0,-14 0,-20 0,-2 0,-2 2,-2 1,0 6,0 7,0 1,1 0,8 0,9 0,11 -1,11 4,11l14 0c2,0 2,-1 2,-3l0 -17c1,0 8,0 9,0 0,0 0,1 0,1 0,7 0,14 0,21l-38 0zm11 -3c-1,-2 0,-20 0,-24 0,-2 -1,-3 1,-3l15 0c1,0 1,0 1,1 0,0 0,21 0,24 0,1 0,2 -1,2l-15 0c-1,0 -1,0 -1,0zm-2 -20c-2,0 -5,0 -8,0 -1,0 -2,1 -2,2l0 21 -2 0c-1,0 0,1 0,1 0,1 0,1 1,1 0,1 1,2 1,2 2,1 3,2 6,2l29 0c5,0 6,-2 8,-5 0,0 0,0 0,-1l-2 0c-1,-7 0,-14 0,-21 0,-3 -3,-2 -6,-2 -2,0 -4,0 -5,0 0,-2 0,-3 0,-5 0,-4 0,-3 -10,-3 -1,0 -8,0 -8,0 -1,0 -1,1 -2,1 0,1 0,6 0,7z"/>
   <path fill="#FEFEFE" d="M35 26c1,1 4,4 5,5 0,1 0,2 -1,3 -2,1 -3,-1 -3,0 -1,1 0,2 0,3l-1 0c0,-1 1,-4 -1,-3 -2,1 -3,0 -3,-2 0,-2 1,-3 3,-4 0,-1 1,-1 1,-2zm-1 9c0,2 -2,3 0,3l2 0c3,0 1,-1 1,-3 3,1 5,-2 4,-5 -1,-1 -2,-2 -3,-3 -3,-3 -2,-3 -5,0 -1,1 -2,2 -3,3 -1,3 1,6 4,5z"/>
  </g>
 </g>
</svg>
