<?xml version="1.0" encoding="UTF-8"?>
<!DOCTYPE svg PUBLIC "-//W3C//DTD SVG 1.1//EN" "http://www.w3.org/Graphics/SVG/1.1/DTD/svg11.dtd">
<!-- Creator: CorelDRAW X7 -->
<svg xmlns="http://www.w3.org/2000/svg" xml:space="preserve" width="3.1857mm" height="3.1857mm" version="1.1" shape-rendering="geometricPrecision" text-rendering="geometricPrecision" image-rendering="optimizeQuality" fill-rule="evenodd" clip-rule="evenodd"
viewBox="0 0 19 19"
 xmlns:xlink="http://www.w3.org/1999/xlink">
 <g id="Layer_x0020_1">
  <metadata id="CorelCorpID_0Corel-Layer"/>
  <g id="_464524240">
   <path fill="#3ABEFE" d="M6 1c0,0 0,0 0,0 0,0 -1,0 -1,0l-1 1 1 2c-1,0 -1,0 -1,0 0,0 0,0 0,0 0,0 0,0 0,1l-2 -1c0,0 -1,1 -1,1l1 2c0,0 0,0 0,0 0,1 0,1 0,1 0,0 -2,0 -2,0l0 2c0,0 2,0 2,1 0,0 0,0 0,0 0,0 0,1 0,1 0,0 -1,1 -1,1 0,0 1,2 1,2l2 -1c0,0 0,0 0,0 0,0 0,1 1,1l-1 2 1 1c1,0 1,-1 1,-1l0 -1c1,0 0,0 1,1 0,0 1,0 1,0 0,0 0,1 0,1 0,0 0,0 0,0l0 1 2 0 0 -1c0,0 0,-1 1,-1 0,0 0,-1 1,-1 0,0 1,2 1,2l1 -1c0,0 1,0 1,0l0 0 -1 -2c0,0 0,0 1,0l0 -1 2 1c0,0 0,-1 0,-1l1 -1c0,0 0,0 0,0l-1 -1c-1,0 -1,0 -1,0 0,0 0,-1 0,-1 0,0 1,0 1,0l2 -1 0 -2 -2 0c0,0 0,0 0,0 -1,0 -1,-1 -1,-1l0 0c0,0 0,0 0,0 1,-1 1,-1 2,-2 0,0 -1,-1 -1,-1 0,0 -2,1 -2,1l0 -1c-1,0 -1,0 -1,0l1 -2 -2 -1c0,0 0,0 0,0 0,0 -1,1 -1,1l0 0c-1,0 -1,0 -1,0l-1 -2 -2 0 0 2c0,0 -1,0 -1,0 0,0 -1,-1 -1,-1z"/>
   <path fill="#3ABEFE" d="M15 10c1,-3 -2,-6 -5,-7 -3,0 -6,2 -7,5 0,4 2,7 5,7 4,1 7,-2 7,-5z"/>
   <path fill="#1A2235" d="M15 10c1,-3 -2,-6 -5,-6 -3,-1 -6,1 -6,4 -1,4 1,7 4,7 4,1 7,-2 7,-5z"/>
   <path fill="#3ABEFE" d="M13 10c0,-2 -1,-4 -3,-5 -2,0 -4,2 -5,4 0,2 2,4 4,4 2,1 4,-1 4,-3z"/>
   <path fill="#3ABEFE" d="M13 10c0,-2 -1,-4 -3,-4 -2,-1 -4,1 -4,3 -1,2 1,4 3,4 2,0 4,-1 4,-3z"/>
   <path fill="#3ABEFE" d="M11 10c0,-2 -1,-2 -1,-2 -1,-1 -2,0 -2,1 -1,1 0,2 1,2 1,0 2,-1 2,-1z"/>
   <path fill="#1A2235" d="M11 10c0,-1 -1,-2 -1,-2 -1,0 -2,0 -2,1 0,1 0,2 1,2 1,0 2,-1 2,-1z"/>
  </g>
 </g>
</svg>
