<?xml version="1.0" encoding="UTF-8"?>
<!DOCTYPE svg PUBLIC "-//W3C//DTD SVG 1.1//EN" "http://www.w3.org/Graphics/SVG/1.1/DTD/svg11.dtd">
<!-- Creator: CorelDRAW X7 -->
<svg xmlns="http://www.w3.org/2000/svg" xml:space="preserve" width="7.3378mm" height="7.3525mm" version="1.1" shape-rendering="geometricPrecision" text-rendering="geometricPrecision" image-rendering="optimizeQuality" fill-rule="evenodd" clip-rule="evenodd"
viewBox="0 0 71 71"
 xmlns:xlink="http://www.w3.org/1999/xlink">
 <defs>
   <linearGradient id="id0" gradientUnits="userSpaceOnUse" x1="11.6772" y1="10.9872" x2="59.0434" y2="59.8742">
    <stop offset="0" stop-opacity="1" stop-color="#FFC629"/>
    <stop offset="1" stop-opacity="1" stop-color="#584501"/>
   </linearGradient>
 </defs>
 <g id="Layer_x0020_1">
  <metadata id="CorelCorpID_0Corel-Layer"/>
  <path fill="url(#id0)" d="M71 32l0 6c0,1 0,3 -1,3 0,5 -3,11 -6,15 0,1 -1,2 -2,2 0,1 -2,4 -3,4 0,0 -1,0 -1,1 -2,2 -4,3 -7,4 -2,1 -4,2 -7,3 -1,0 -3,1 -5,1 -1,0 -2,0 -2,0l-3 0 -4 -1c-3,0 -6,-1 -10,-2 -3,-2 -5,-3 -7,-5 0,-1 -1,-1 -1,-1 -1,0 -2,-2 -3,-3 -2,-2 -4,-6 -6,-8 -3,-8 -3,-13 -3,-14l0 -3c0,-1 0,-3 0,-4 1,-6 4,-13 9,-18l0 -1c1,0 3,-2 4,-3 2,-2 4,-3 7,-5 4,-1 8,-2 12,-3 0,0 2,0 2,0l3 0c0,0 3,0 4,0 3,1 7,2 10,3 2,2 4,3 6,4l4 4c0,0 1,1 2,2 0,0 0,0 1,1 1,2 2,4 4,6 2,6 3,10 3,12z"/>
  <g id="_462676224">
   <path fill="#FEFEFE" d="M34 24c0,0 0,-2 1,-2 0,0 0,0 0,-1 0,0 0,0 0,0 1,-1 1,0 1,1 0,0 1,2 1,2l3 0c0,0 0,0 0,0l-2 2c0,0 0,0 0,0 0,2 1,4 0,4 0,0 -2,-2 -3,-2l-1 1c-1,0 -1,1 -2,1 0,0 0,-1 1,-2 0,0 0,-1 0,-2 0,0 -2,-1 -2,-1 -1,-1 -1,-1 0,-1l3 0zm-11 -8c0,6 3,17 7,21 1,1 3,4 5,4 8,0 13,-18 13,-25l-25 0z"/>
   <path fill="#FEFEFE" d="M22 56c4,2 8,3 13,3 3,0 6,0 8,-1 2,0 4,-1 6,-2l0 -6 -27 0 0 6z"/>
   <path fill="#FEFEFE" d="M27 33c-1,0 -1,-1 -1,-1 0,0 -1,-2 -1,-2 0,0 0,-1 0,-1 -1,-1 -3,-2 -5,-3 0,-1 -2,-3 -2,-4 0,-2 3,-3 5,-3l-1 -1c-2,0 -4,0 -4,2 -2,1 -1,4 0,6 1,1 2,1 3,2 1,1 2,2 3,2 0,0 0,1 0,1 0,1 0,2 1,2 0,1 1,0 2,0z"/>
   <path fill="#FEFEFE" d="M47 29c-2,1 -1,1 -2,2l-1 2c1,0 1,1 2,0 1,0 1,-1 0,-2 1,-1 3,-2 4,-3 1,-1 2,-2 3,-3 1,-2 1,-4 0,-5 -1,-2 -3,-2 -5,-2l0 1c2,0 5,1 4,3 0,2 -1,3 -2,4 0,1 0,1 -1,1 0,0 -2,1 -2,2z"/>
   <path fill="#FEFEFE" d="M34 41c0,2 0,3 0,4 -1,2 -2,2 -2,3l7 0 0 -1c-2,-1 -2,-3 -3,-6 -1,0 0,0 -2,0z"/>
   <polygon fill="#FEFEFE" points="29,50 42,50 42,49 41,49 29,49 "/>
  </g>
 </g>
</svg>
